<?xml version="1.0" encoding="utf-8" standalone="no"?>
<!DOCTYPE svg PUBLIC "-//W3C//DTD SVG 1.1//EN"
  "http://www.w3.org/Graphics/SVG/1.1/DTD/svg11.dtd">
<svg xmlns:xlink="http://www.w3.org/1999/xlink" width="1080pt" height="720pt" viewBox="0 0 1080 720" xmlns="http://www.w3.org/2000/svg" version="1.1">
 <metadata>
  <rdf:RDF xmlns:dc="http://purl.org/dc/elements/1.1/" xmlns:cc="http://creativecommons.org/ns#" xmlns:rdf="http://www.w3.org/1999/02/22-rdf-syntax-ns#">
   <cc:Work>
    <dc:type rdf:resource="http://purl.org/dc/dcmitype/StillImage"/>
    <dc:date>2022-03-16T17:14:26.390866</dc:date>
    <dc:format>image/svg+xml</dc:format>
    <dc:creator>
     <cc:Agent>
      <dc:title>Matplotlib v3.5.1, https://matplotlib.org/</dc:title>
     </cc:Agent>
    </dc:creator>
   </cc:Work>
  </rdf:RDF>
 </metadata>
 <defs>
  <style type="text/css">*{stroke-linejoin: round; stroke-linecap: butt}</style>
 </defs>
 <g id="figure_1">
  <g id="patch_1">
   <path d="M 0 720 
L 1080 720 
L 1080 0 
L 0 0 
L 0 720 
z
" style="fill: none"/>
  </g>
  <g id="axes_1">
   <g id="patch_2">
    <path d="M 135 246.282353 
L 972 246.282353 
L 972 86.4 
L 135 86.4 
z
" style="fill: #ffffff"/>
   </g>
   <g id="matplotlib.axis_1">
    <g id="xtick_1">
     <g id="line2d_1">
      <defs>
       <path id="mac403d6951" d="M 0 0 
L 0 3.5 
" style="stroke: #000000; stroke-width: 0.8"/>
      </defs>
      <g>
       <use xlink:href="#mac403d6951" x="173.045455" y="246.282353" style="stroke: #000000; stroke-width: 0.8"/>
      </g>
     </g>
    </g>
    <g id="xtick_2">
     <g id="line2d_2">
      <g>
       <use xlink:href="#mac403d6951" x="326.764463" y="246.282353" style="stroke: #000000; stroke-width: 0.8"/>
      </g>
     </g>
    </g>
    <g id="xtick_3">
     <g id="line2d_3">
      <g>
       <use xlink:href="#mac403d6951" x="480.483471" y="246.282353" style="stroke: #000000; stroke-width: 0.8"/>
      </g>
     </g>
    </g>
    <g id="xtick_4">
     <g id="line2d_4">
      <g>
       <use xlink:href="#mac403d6951" x="634.202479" y="246.282353" style="stroke: #000000; stroke-width: 0.8"/>
      </g>
     </g>
    </g>
    <g id="xtick_5">
     <g id="line2d_5">
      <g>
       <use xlink:href="#mac403d6951" x="787.921488" y="246.282353" style="stroke: #000000; stroke-width: 0.8"/>
      </g>
     </g>
    </g>
    <g id="xtick_6">
     <g id="line2d_6">
      <g>
       <use xlink:href="#mac403d6951" x="941.640496" y="246.282353" style="stroke: #000000; stroke-width: 0.8"/>
      </g>
     </g>
    </g>
   </g>
   <g id="matplotlib.axis_2">
    <g id="ytick_1">
     <g id="line2d_7">
      <defs>
       <path id="mc5440a184e" d="M 0 0 
L -3.5 0 
" style="stroke: #000000; stroke-width: 0.8"/>
      </defs>
      <g>
       <use xlink:href="#mc5440a184e" x="135" y="224.684929" style="stroke: #000000; stroke-width: 0.8"/>
      </g>
     </g>
     <g id="text_1">
      <!-- 2.5 -->
      <g transform="translate(112.096875 228.484148)scale(0.1 -0.1)">
       <defs>
        <path id="DejaVuSans-32" d="M 1228 531 
L 3431 531 
L 3431 0 
L 469 0 
L 469 531 
Q 828 903 1448 1529 
Q 2069 2156 2228 2338 
Q 2531 2678 2651 2914 
Q 2772 3150 2772 3378 
Q 2772 3750 2511 3984 
Q 2250 4219 1831 4219 
Q 1534 4219 1204 4116 
Q 875 4013 500 3803 
L 500 4441 
Q 881 4594 1212 4672 
Q 1544 4750 1819 4750 
Q 2544 4750 2975 4387 
Q 3406 4025 3406 3419 
Q 3406 3131 3298 2873 
Q 3191 2616 2906 2266 
Q 2828 2175 2409 1742 
Q 1991 1309 1228 531 
z
" transform="scale(0.015625)"/>
        <path id="DejaVuSans-2e" d="M 684 794 
L 1344 794 
L 1344 0 
L 684 0 
L 684 794 
z
" transform="scale(0.015625)"/>
        <path id="DejaVuSans-35" d="M 691 4666 
L 3169 4666 
L 3169 4134 
L 1269 4134 
L 1269 2991 
Q 1406 3038 1543 3061 
Q 1681 3084 1819 3084 
Q 2600 3084 3056 2656 
Q 3513 2228 3513 1497 
Q 3513 744 3044 326 
Q 2575 -91 1722 -91 
Q 1428 -91 1123 -41 
Q 819 9 494 109 
L 494 744 
Q 775 591 1075 516 
Q 1375 441 1709 441 
Q 2250 441 2565 725 
Q 2881 1009 2881 1497 
Q 2881 1984 2565 2268 
Q 2250 2553 1709 2553 
Q 1456 2553 1204 2497 
Q 953 2441 691 2322 
L 691 4666 
z
" transform="scale(0.015625)"/>
       </defs>
       <use xlink:href="#DejaVuSans-32"/>
       <use xlink:href="#DejaVuSans-2e" x="63.623047"/>
       <use xlink:href="#DejaVuSans-35" x="95.410156"/>
      </g>
     </g>
    </g>
    <g id="ytick_2">
     <g id="line2d_8">
      <g>
       <use xlink:href="#mc5440a184e" x="135" y="199.095564" style="stroke: #000000; stroke-width: 0.8"/>
      </g>
     </g>
     <g id="text_2">
      <!-- 5.0 -->
      <g transform="translate(112.096875 202.894783)scale(0.1 -0.1)">
       <defs>
        <path id="DejaVuSans-30" d="M 2034 4250 
Q 1547 4250 1301 3770 
Q 1056 3291 1056 2328 
Q 1056 1369 1301 889 
Q 1547 409 2034 409 
Q 2525 409 2770 889 
Q 3016 1369 3016 2328 
Q 3016 3291 2770 3770 
Q 2525 4250 2034 4250 
z
M 2034 4750 
Q 2819 4750 3233 4129 
Q 3647 3509 3647 2328 
Q 3647 1150 3233 529 
Q 2819 -91 2034 -91 
Q 1250 -91 836 529 
Q 422 1150 422 2328 
Q 422 3509 836 4129 
Q 1250 4750 2034 4750 
z
" transform="scale(0.015625)"/>
       </defs>
       <use xlink:href="#DejaVuSans-35"/>
       <use xlink:href="#DejaVuSans-2e" x="63.623047"/>
       <use xlink:href="#DejaVuSans-30" x="95.410156"/>
      </g>
     </g>
    </g>
    <g id="ytick_3">
     <g id="line2d_9">
      <g>
       <use xlink:href="#mc5440a184e" x="135" y="173.506199" style="stroke: #000000; stroke-width: 0.8"/>
      </g>
     </g>
     <g id="text_3">
      <!-- 7.5 -->
      <g transform="translate(112.096875 177.305417)scale(0.1 -0.1)">
       <defs>
        <path id="DejaVuSans-37" d="M 525 4666 
L 3525 4666 
L 3525 4397 
L 1831 0 
L 1172 0 
L 2766 4134 
L 525 4134 
L 525 4666 
z
" transform="scale(0.015625)"/>
       </defs>
       <use xlink:href="#DejaVuSans-37"/>
       <use xlink:href="#DejaVuSans-2e" x="63.623047"/>
       <use xlink:href="#DejaVuSans-35" x="95.410156"/>
      </g>
     </g>
    </g>
    <g id="ytick_4">
     <g id="line2d_10">
      <g>
       <use xlink:href="#mc5440a184e" x="135" y="147.916834" style="stroke: #000000; stroke-width: 0.8"/>
      </g>
     </g>
     <g id="text_4">
      <!-- 10.0 -->
      <g transform="translate(105.734375 151.716052)scale(0.1 -0.1)">
       <defs>
        <path id="DejaVuSans-31" d="M 794 531 
L 1825 531 
L 1825 4091 
L 703 3866 
L 703 4441 
L 1819 4666 
L 2450 4666 
L 2450 531 
L 3481 531 
L 3481 0 
L 794 0 
L 794 531 
z
" transform="scale(0.015625)"/>
       </defs>
       <use xlink:href="#DejaVuSans-31"/>
       <use xlink:href="#DejaVuSans-30" x="63.623047"/>
       <use xlink:href="#DejaVuSans-2e" x="127.246094"/>
       <use xlink:href="#DejaVuSans-30" x="159.033203"/>
      </g>
     </g>
    </g>
    <g id="ytick_5">
     <g id="line2d_11">
      <g>
       <use xlink:href="#mc5440a184e" x="135" y="122.327469" style="stroke: #000000; stroke-width: 0.8"/>
      </g>
     </g>
     <g id="text_5">
      <!-- 12.5 -->
      <g transform="translate(105.734375 126.126687)scale(0.1 -0.1)">
       <use xlink:href="#DejaVuSans-31"/>
       <use xlink:href="#DejaVuSans-32" x="63.623047"/>
       <use xlink:href="#DejaVuSans-2e" x="127.246094"/>
       <use xlink:href="#DejaVuSans-35" x="159.033203"/>
      </g>
     </g>
    </g>
    <g id="ytick_6">
     <g id="line2d_12">
      <g>
       <use xlink:href="#mc5440a184e" x="135" y="96.738103" style="stroke: #000000; stroke-width: 0.8"/>
      </g>
     </g>
     <g id="text_6">
      <!-- 15.0 -->
      <g transform="translate(105.734375 100.537322)scale(0.1 -0.1)">
       <use xlink:href="#DejaVuSans-31"/>
       <use xlink:href="#DejaVuSans-35" x="63.623047"/>
       <use xlink:href="#DejaVuSans-2e" x="127.246094"/>
       <use xlink:href="#DejaVuSans-30" x="159.033203"/>
      </g>
     </g>
    </g>
    <g id="text_7">
     <!-- score -->
     <g transform="translate(99.654687 179.773989)rotate(-90)scale(0.1 -0.1)">
      <defs>
       <path id="DejaVuSans-73" d="M 2834 3397 
L 2834 2853 
Q 2591 2978 2328 3040 
Q 2066 3103 1784 3103 
Q 1356 3103 1142 2972 
Q 928 2841 928 2578 
Q 928 2378 1081 2264 
Q 1234 2150 1697 2047 
L 1894 2003 
Q 2506 1872 2764 1633 
Q 3022 1394 3022 966 
Q 3022 478 2636 193 
Q 2250 -91 1575 -91 
Q 1294 -91 989 -36 
Q 684 19 347 128 
L 347 722 
Q 666 556 975 473 
Q 1284 391 1588 391 
Q 1994 391 2212 530 
Q 2431 669 2431 922 
Q 2431 1156 2273 1281 
Q 2116 1406 1581 1522 
L 1381 1569 
Q 847 1681 609 1914 
Q 372 2147 372 2553 
Q 372 3047 722 3315 
Q 1072 3584 1716 3584 
Q 2034 3584 2315 3537 
Q 2597 3491 2834 3397 
z
" transform="scale(0.015625)"/>
       <path id="DejaVuSans-63" d="M 3122 3366 
L 3122 2828 
Q 2878 2963 2633 3030 
Q 2388 3097 2138 3097 
Q 1578 3097 1268 2742 
Q 959 2388 959 1747 
Q 959 1106 1268 751 
Q 1578 397 2138 397 
Q 2388 397 2633 464 
Q 2878 531 3122 666 
L 3122 134 
Q 2881 22 2623 -34 
Q 2366 -91 2075 -91 
Q 1284 -91 818 406 
Q 353 903 353 1747 
Q 353 2603 823 3093 
Q 1294 3584 2113 3584 
Q 2378 3584 2631 3529 
Q 2884 3475 3122 3366 
z
" transform="scale(0.015625)"/>
       <path id="DejaVuSans-6f" d="M 1959 3097 
Q 1497 3097 1228 2736 
Q 959 2375 959 1747 
Q 959 1119 1226 758 
Q 1494 397 1959 397 
Q 2419 397 2687 759 
Q 2956 1122 2956 1747 
Q 2956 2369 2687 2733 
Q 2419 3097 1959 3097 
z
M 1959 3584 
Q 2709 3584 3137 3096 
Q 3566 2609 3566 1747 
Q 3566 888 3137 398 
Q 2709 -91 1959 -91 
Q 1206 -91 779 398 
Q 353 888 353 1747 
Q 353 2609 779 3096 
Q 1206 3584 1959 3584 
z
" transform="scale(0.015625)"/>
       <path id="DejaVuSans-72" d="M 2631 2963 
Q 2534 3019 2420 3045 
Q 2306 3072 2169 3072 
Q 1681 3072 1420 2755 
Q 1159 2438 1159 1844 
L 1159 0 
L 581 0 
L 581 3500 
L 1159 3500 
L 1159 2956 
Q 1341 3275 1631 3429 
Q 1922 3584 2338 3584 
Q 2397 3584 2469 3576 
Q 2541 3569 2628 3553 
L 2631 2963 
z
" transform="scale(0.015625)"/>
       <path id="DejaVuSans-65" d="M 3597 1894 
L 3597 1613 
L 953 1613 
Q 991 1019 1311 708 
Q 1631 397 2203 397 
Q 2534 397 2845 478 
Q 3156 559 3463 722 
L 3463 178 
Q 3153 47 2828 -22 
Q 2503 -91 2169 -91 
Q 1331 -91 842 396 
Q 353 884 353 1716 
Q 353 2575 817 3079 
Q 1281 3584 2069 3584 
Q 2775 3584 3186 3129 
Q 3597 2675 3597 1894 
z
M 3022 2063 
Q 3016 2534 2758 2815 
Q 2500 3097 2075 3097 
Q 1594 3097 1305 2825 
Q 1016 2553 972 2059 
L 3022 2063 
z
" transform="scale(0.015625)"/>
      </defs>
      <use xlink:href="#DejaVuSans-73"/>
      <use xlink:href="#DejaVuSans-63" x="52.099609"/>
      <use xlink:href="#DejaVuSans-6f" x="107.080078"/>
      <use xlink:href="#DejaVuSans-72" x="168.261719"/>
      <use xlink:href="#DejaVuSans-65" x="207.125"/>
     </g>
    </g>
   </g>
   <g id="line2d_13">
    <path d="M 173.045455 233.8971 
L 173.81405 233.8971 
L 174.582645 235.944249 
L 175.35124 236.967824 
L 176.119835 229.802802 
L 176.88843 229.802802 
L 177.657025 221.614205 
L 178.42562 221.614205 
L 179.194215 220.59063 
L 179.96281 214.449183 
L 180.731405 218.543481 
L 181.5 218.543481 
L 182.268595 216.496332 
L 183.03719 202.166288 
L 183.805785 212.402034 
L 184.57438 191.930542 
L 185.342975 200.119138 
L 186.11157 200.119138 
L 186.880165 201.142713 
L 187.64876 205.237011 
L 188.417355 201.142713 
L 189.18595 201.142713 
L 189.954545 191.930542 
L 190.72314 199.095564 
L 192.260331 199.095564 
L 193.028926 197.048415 
L 193.797521 179.647646 
L 194.566116 170.435475 
L 195.334711 171.459049 
L 196.103306 160.199729 
L 196.871901 144.84611 
L 197.640496 147.916834 
L 198.409091 149.963983 
L 199.177686 140.751811 
L 199.946281 150.987557 
L 200.714876 143.822535 
L 201.483471 140.751811 
L 202.252066 152.011132 
L 203.020661 139.728237 
L 203.789256 154.058281 
L 204.557851 148.940408 
L 205.326446 149.963983 
L 206.095041 148.940408 
L 206.863636 148.940408 
L 207.632231 156.10543 
L 208.400826 157.129005 
L 209.169421 177.600497 
L 209.938017 170.435475 
L 210.706612 170.435475 
L 211.475207 173.506199 
L 212.243802 183.741945 
L 213.012397 171.459049 
L 213.780992 166.341176 
L 214.549587 175.553348 
L 215.318182 178.624072 
L 216.086777 173.506199 
L 216.855372 166.341176 
L 217.623967 170.435475 
L 218.392562 172.482624 
L 219.161157 161.223303 
L 219.929752 155.081856 
L 220.698347 165.317602 
L 221.466942 173.506199 
L 222.235537 160.199729 
L 223.004132 158.15258 
L 223.772727 164.294027 
L 224.541322 171.459049 
L 225.309917 154.058281 
L 226.078512 164.294027 
L 226.847107 165.317602 
L 227.615702 170.435475 
L 228.384298 174.529773 
L 229.152893 176.576922 
L 229.921488 186.812669 
L 230.690083 168.388326 
L 231.458678 158.15258 
L 232.227273 149.963983 
L 232.995868 157.129005 
L 233.764463 137.681088 
L 235.301653 120.280319 
L 236.070248 117.209596 
L 236.838843 110.044573 
L 237.607438 93.66738 
L 239.144628 119.256745 
L 239.913223 122.327469 
L 240.681818 135.633938 
L 241.450413 153.034707 
L 242.219008 161.223303 
L 242.987603 176.576922 
L 244.524793 180.671221 
L 245.293388 192.954116 
L 246.061983 187.836243 
L 246.830579 188.859818 
L 247.599174 177.600497 
L 248.367769 176.576922 
L 249.136364 176.576922 
L 249.904959 186.812669 
L 250.673554 172.482624 
L 251.442149 176.576922 
L 252.210744 169.4119 
L 252.979339 157.129005 
L 253.747934 165.317602 
L 254.516529 149.963983 
L 255.285124 160.199729 
L 256.053719 154.058281 
L 256.822314 156.10543 
L 257.590909 140.751811 
L 258.359504 160.199729 
L 259.128099 157.129005 
L 259.896694 167.364751 
L 260.665289 169.4119 
L 261.433884 165.317602 
L 262.202479 182.71837 
L 263.739669 159.176154 
L 264.508264 159.176154 
L 265.27686 167.364751 
L 266.045455 167.364751 
L 266.81405 172.482624 
L 267.582645 160.199729 
L 268.35124 158.15258 
L 269.119835 145.869684 
L 269.88843 144.84611 
L 270.657025 157.129005 
L 271.42562 176.576922 
L 272.194215 175.553348 
L 272.96281 169.4119 
L 274.5 156.10543 
L 275.268595 157.129005 
L 276.805785 185.789094 
L 277.57438 180.671221 
L 278.342975 181.694796 
L 279.11157 177.600497 
L 279.880165 179.647646 
L 280.64876 184.765519 
L 281.417355 173.506199 
L 282.18595 179.647646 
L 282.954545 182.71837 
L 283.72314 188.859818 
L 284.491736 188.859818 
L 285.260331 195.001265 
L 286.028926 195.001265 
L 286.797521 181.694796 
L 287.566116 161.223303 
L 289.103306 176.576922 
L 289.871901 157.129005 
L 290.640496 168.388326 
L 291.409091 150.987557 
L 292.177686 143.822535 
L 292.946281 125.398192 
L 293.714876 129.492491 
L 295.252066 161.223303 
L 296.020661 152.011132 
L 296.789256 161.223303 
L 297.557851 164.294027 
L 298.326446 157.129005 
L 299.095041 173.506199 
L 299.863636 166.341176 
L 300.632231 179.647646 
L 301.400826 166.341176 
L 302.169421 167.364751 
L 302.938017 152.011132 
L 303.706612 157.129005 
L 304.475207 157.129005 
L 305.243802 167.364751 
L 306.012397 159.176154 
L 306.780992 159.176154 
L 307.549587 169.4119 
L 308.318182 174.529773 
L 309.086777 183.741945 
L 309.855372 171.459049 
L 310.623967 172.482624 
L 311.392562 166.341176 
L 312.929752 166.341176 
L 313.698347 175.553348 
L 314.466942 169.4119 
L 315.235537 179.647646 
L 316.004132 180.671221 
L 316.772727 183.741945 
L 317.541322 189.883392 
L 318.309917 204.213437 
L 319.078512 203.189862 
L 319.847107 205.237011 
L 320.615702 209.33131 
L 321.384298 210.354884 
L 322.152893 215.472757 
L 322.921488 199.095564 
L 323.690083 193.977691 
L 324.458678 195.001265 
L 325.227273 199.095564 
L 325.995868 183.741945 
L 326.764463 192.954116 
L 327.533058 172.482624 
L 328.301653 165.317602 
L 329.070248 165.317602 
L 329.838843 163.270453 
L 330.607438 167.364751 
L 331.376033 173.506199 
L 332.144628 172.482624 
L 332.913223 168.388326 
L 333.681818 183.741945 
L 334.450413 168.388326 
L 335.219008 180.671221 
L 336.756198 178.624072 
L 337.524793 162.246878 
L 338.293388 173.506199 
L 339.061983 167.364751 
L 339.830579 166.341176 
L 340.599174 170.435475 
L 341.367769 171.459049 
L 342.136364 184.765519 
L 342.904959 191.930542 
L 343.673554 188.859818 
L 344.442149 192.954116 
L 345.210744 212.402034 
L 345.979339 205.237011 
L 346.747934 190.906967 
L 347.516529 184.765519 
L 348.285124 181.694796 
L 349.053719 181.694796 
L 349.822314 165.317602 
L 350.590909 164.294027 
L 351.359504 171.459049 
L 352.128099 170.435475 
L 352.896694 160.199729 
L 353.665289 153.034707 
L 354.433884 168.388326 
L 355.202479 166.341176 
L 355.971074 150.987557 
L 356.739669 154.058281 
L 357.508264 156.10543 
L 358.27686 150.987557 
L 359.045455 149.963983 
L 359.81405 142.798961 
L 360.582645 149.963983 
L 361.35124 145.869684 
L 362.119835 149.963983 
L 362.88843 153.034707 
L 363.657025 171.459049 
L 364.42562 169.4119 
L 365.194215 185.789094 
L 366.731405 199.095564 
L 368.268595 179.647646 
L 369.03719 178.624072 
L 369.805785 173.506199 
L 370.57438 165.317602 
L 371.342975 163.270453 
L 372.11157 165.317602 
L 372.880165 161.223303 
L 373.64876 147.916834 
L 374.417355 146.893259 
L 375.18595 163.270453 
L 375.954545 161.223303 
L 376.72314 181.694796 
L 377.491736 183.741945 
L 378.260331 187.836243 
L 379.797521 177.600497 
L 380.566116 165.317602 
L 381.334711 170.435475 
L 382.103306 166.341176 
L 382.871901 156.10543 
L 383.640496 160.199729 
L 384.409091 156.10543 
L 385.177686 139.728237 
L 385.946281 148.940408 
L 386.714876 148.940408 
L 387.483471 154.058281 
L 388.252066 156.10543 
L 389.789256 136.657513 
L 390.557851 148.940408 
L 391.326446 156.10543 
L 392.095041 158.15258 
L 392.863636 161.223303 
L 393.632231 160.199729 
L 394.400826 148.940408 
L 395.169421 140.751811 
L 395.938017 136.657513 
L 396.706612 141.775386 
L 397.475207 157.129005 
L 398.243802 145.869684 
L 399.012397 138.704662 
L 399.780992 128.468916 
L 400.549587 125.398192 
L 401.318182 128.468916 
L 402.086777 135.633938 
L 402.855372 129.492491 
L 403.623967 141.775386 
L 404.392562 134.610364 
L 405.161157 132.563215 
L 405.929752 128.468916 
L 406.698347 130.516065 
L 407.466942 141.775386 
L 408.235537 159.176154 
L 409.004132 156.10543 
L 409.772727 166.341176 
L 410.541322 161.223303 
L 411.309917 162.246878 
L 412.078512 175.553348 
L 412.847107 178.624072 
L 413.615702 195.001265 
L 414.384298 204.213437 
L 415.152893 204.213437 
L 415.921488 206.260586 
L 416.690083 209.33131 
L 417.458678 210.354884 
L 418.227273 225.708503 
L 418.995868 231.849951 
L 419.764463 239.014973 
L 420.533058 239.014973 
L 421.301653 223.661354 
L 422.070248 222.63778 
L 422.838843 205.237011 
L 423.607438 205.237011 
L 424.376033 196.02484 
L 425.144628 193.977691 
L 425.913223 199.095564 
L 426.681818 197.048415 
L 427.450413 190.906967 
L 428.219008 171.459049 
L 428.987603 186.812669 
L 429.756198 176.576922 
L 430.524793 195.001265 
L 431.293388 178.624072 
L 432.061983 186.812669 
L 432.830579 174.529773 
L 433.599174 174.529773 
L 434.367769 168.388326 
L 435.136364 163.270453 
L 435.904959 181.694796 
L 436.673554 181.694796 
L 437.442149 183.741945 
L 438.210744 178.624072 
L 438.979339 191.930542 
L 439.747934 190.906967 
L 440.516529 205.237011 
L 441.285124 188.859818 
L 442.822314 201.142713 
L 443.590909 181.694796 
L 444.359504 181.694796 
L 445.128099 182.71837 
L 446.665289 188.859818 
L 447.433884 187.836243 
L 448.202479 188.859818 
L 448.971074 204.213437 
L 449.739669 200.119138 
L 450.508264 200.119138 
L 451.27686 215.472757 
L 452.81405 215.472757 
L 453.582645 203.189862 
L 454.35124 202.166288 
L 455.119835 199.095564 
L 455.88843 198.071989 
L 456.657025 192.954116 
L 457.42562 199.095564 
L 458.194215 198.071989 
L 458.96281 200.119138 
L 459.731405 190.906967 
L 460.5 184.765519 
L 461.268595 198.071989 
L 462.03719 200.119138 
L 462.805785 192.954116 
L 463.57438 193.977691 
L 464.342975 199.095564 
L 465.11157 197.048415 
L 465.880165 202.166288 
L 466.64876 190.906967 
L 467.417355 199.095564 
L 468.18595 192.954116 
L 468.954545 190.906967 
L 469.72314 185.789094 
L 470.491736 197.048415 
L 471.260331 191.930542 
L 472.028926 192.954116 
L 472.797521 192.954116 
L 473.566116 178.624072 
L 474.334711 189.883392 
L 475.103306 185.789094 
L 475.871901 198.071989 
L 476.640496 199.095564 
L 477.409091 190.906967 
L 478.177686 187.836243 
L 478.946281 192.954116 
L 479.714876 191.930542 
L 480.483471 195.001265 
L 481.252066 208.307735 
L 482.020661 205.237011 
L 482.789256 205.237011 
L 483.557851 210.354884 
L 484.326446 211.378459 
L 485.095041 223.661354 
L 485.863636 214.449183 
L 486.632231 213.425608 
L 487.400826 213.425608 
L 488.169421 209.33131 
L 488.938017 208.307735 
L 490.475207 214.449183 
L 491.243802 204.213437 
L 492.780992 198.071989 
L 493.549587 212.402034 
L 495.086777 210.354884 
L 496.623967 216.496332 
L 497.392562 215.472757 
L 498.161157 202.166288 
L 498.929752 214.449183 
L 499.698347 218.543481 
L 502.004132 170.435475 
L 503.541322 153.034707 
L 504.309917 144.84611 
L 505.078512 143.822535 
L 505.847107 139.728237 
L 506.615702 134.610364 
L 507.384298 114.138872 
L 508.921488 133.586789 
L 509.690083 152.011132 
L 510.458678 146.893259 
L 511.227273 146.893259 
L 511.995868 147.916834 
L 512.764463 139.728237 
L 513.533058 142.798961 
L 514.301653 144.84611 
L 515.070248 144.84611 
L 516.607438 136.657513 
L 517.376033 135.633938 
L 518.144628 131.53964 
L 518.913223 120.280319 
L 519.681818 106.97385 
L 520.450413 119.256745 
L 521.219008 133.586789 
L 521.987603 122.327469 
L 522.756198 136.657513 
L 523.524793 131.53964 
L 524.293388 129.492491 
L 525.061983 131.53964 
L 525.830579 150.987557 
L 526.599174 157.129005 
L 527.367769 157.129005 
L 528.136364 148.940408 
L 528.904959 145.869684 
L 529.673554 155.081856 
L 530.442149 155.081856 
L 531.210744 173.506199 
L 531.979339 182.71837 
L 532.747934 179.647646 
L 533.516529 161.223303 
L 534.285124 171.459049 
L 535.053719 189.883392 
L 535.822314 183.741945 
L 536.590909 180.671221 
L 537.359504 168.388326 
L 538.128099 173.506199 
L 538.896694 174.529773 
L 539.665289 168.388326 
L 540.433884 168.388326 
L 541.202479 177.600497 
L 541.971074 180.671221 
L 542.739669 181.694796 
L 543.508264 191.930542 
L 544.27686 200.119138 
L 545.045455 216.496332 
L 545.81405 208.307735 
L 546.582645 208.307735 
L 547.35124 201.142713 
L 548.119835 197.048415 
L 548.88843 186.812669 
L 549.657025 173.506199 
L 550.42562 167.364751 
L 551.194215 171.459049 
L 551.96281 172.482624 
L 552.731405 165.317602 
L 553.5 165.317602 
L 554.268595 159.176154 
L 555.03719 160.199729 
L 556.57438 166.341176 
L 557.342975 179.647646 
L 558.11157 172.482624 
L 558.880165 155.081856 
L 559.64876 154.058281 
L 560.417355 161.223303 
L 561.18595 161.223303 
L 561.954545 167.364751 
L 562.72314 170.435475 
L 563.491736 170.435475 
L 564.260331 177.600497 
L 565.028926 177.600497 
L 565.797521 182.71837 
L 566.566116 190.906967 
L 567.334711 191.930542 
L 568.103306 191.930542 
L 569.640496 177.600497 
L 570.409091 185.789094 
L 571.177686 190.906967 
L 571.946281 183.741945 
L 572.714876 171.459049 
L 573.483471 168.388326 
L 574.252066 177.600497 
L 575.020661 173.506199 
L 575.789256 175.553348 
L 576.557851 184.765519 
L 577.326446 191.930542 
L 578.095041 188.859818 
L 578.863636 179.647646 
L 579.632231 192.954116 
L 580.400826 192.954116 
L 581.169421 203.189862 
L 581.938017 188.859818 
L 582.706612 185.789094 
L 583.475207 185.789094 
L 584.243802 175.553348 
L 585.012397 170.435475 
L 585.780992 169.4119 
L 586.549587 175.553348 
L 587.318182 167.364751 
L 588.086777 179.647646 
L 588.855372 178.624072 
L 589.623967 192.954116 
L 590.392562 190.906967 
L 591.161157 183.741945 
L 591.929752 200.119138 
L 593.466942 202.166288 
L 594.235537 184.765519 
L 595.004132 177.600497 
L 595.772727 165.317602 
L 596.541322 147.916834 
L 597.309917 142.798961 
L 598.078512 152.011132 
L 598.847107 149.963983 
L 599.615702 146.893259 
L 600.384298 152.011132 
L 601.152893 152.011132 
L 603.458678 196.02484 
L 604.995868 209.33131 
L 605.764463 209.33131 
L 606.533058 211.378459 
L 607.301653 200.119138 
L 608.070248 196.02484 
L 608.838843 195.001265 
L 609.607438 181.694796 
L 610.376033 182.71837 
L 611.144628 181.694796 
L 611.913223 181.694796 
L 612.681818 170.435475 
L 613.450413 167.364751 
L 614.219008 173.506199 
L 614.987603 186.812669 
L 615.756198 184.765519 
L 616.524793 174.529773 
L 617.293388 190.906967 
L 618.061983 184.765519 
L 618.830579 173.506199 
L 619.599174 173.506199 
L 620.367769 171.459049 
L 621.136364 168.388326 
L 621.904959 168.388326 
L 622.673554 164.294027 
L 623.442149 158.15258 
L 624.210744 167.364751 
L 624.979339 170.435475 
L 625.747934 175.553348 
L 626.516529 186.812669 
L 627.285124 195.001265 
L 628.053719 208.307735 
L 628.822314 204.213437 
L 629.590909 184.765519 
L 630.359504 181.694796 
L 631.128099 192.954116 
L 631.896694 196.02484 
L 632.665289 195.001265 
L 633.433884 198.071989 
L 634.202479 189.883392 
L 634.971074 190.906967 
L 635.739669 178.624072 
L 636.508264 168.388326 
L 637.27686 183.741945 
L 638.045455 172.482624 
L 638.81405 167.364751 
L 639.582645 152.011132 
L 640.35124 146.893259 
L 641.119835 145.869684 
L 641.88843 147.916834 
L 642.657025 135.633938 
L 643.42562 143.822535 
L 644.194215 162.246878 
L 644.96281 162.246878 
L 645.731405 180.671221 
L 646.5 179.647646 
L 647.268595 184.765519 
L 648.03719 170.435475 
L 648.805785 159.176154 
L 649.57438 166.341176 
L 650.342975 181.694796 
L 651.11157 168.388326 
L 651.880165 153.034707 
L 652.64876 157.129005 
L 653.417355 154.058281 
L 654.18595 149.963983 
L 654.954545 154.058281 
L 655.72314 154.058281 
L 656.491736 162.246878 
L 657.260331 161.223303 
L 658.028926 159.176154 
L 658.797521 173.506199 
L 659.566116 190.906967 
L 660.334711 186.812669 
L 661.103306 190.906967 
L 661.871901 197.048415 
L 662.640496 207.284161 
L 663.409091 207.284161 
L 664.177686 192.954116 
L 664.946281 192.954116 
L 665.714876 193.977691 
L 666.483471 190.906967 
L 667.252066 190.906967 
L 668.789256 186.812669 
L 669.557851 186.812669 
L 670.326446 180.671221 
L 671.095041 198.071989 
L 671.863636 211.378459 
L 673.400826 185.789094 
L 674.169421 174.529773 
L 674.938017 154.058281 
L 675.706612 148.940408 
L 676.475207 140.751811 
L 677.243802 138.704662 
L 678.012397 133.586789 
L 678.780992 129.492491 
L 679.549587 134.610364 
L 680.318182 137.681088 
L 681.086777 131.53964 
L 681.855372 137.681088 
L 682.623967 158.15258 
L 684.161157 175.553348 
L 684.929752 173.506199 
L 685.698347 169.4119 
L 686.466942 169.4119 
L 687.235537 168.388326 
L 688.004132 178.624072 
L 688.772727 195.001265 
L 689.541322 205.237011 
L 690.309917 200.119138 
L 691.078512 184.765519 
L 691.847107 166.341176 
L 692.615702 165.317602 
L 693.384298 165.317602 
L 694.152893 169.4119 
L 694.921488 169.4119 
L 695.690083 152.011132 
L 696.458678 139.728237 
L 697.227273 135.633938 
L 697.995868 139.728237 
L 699.533058 167.364751 
L 700.301653 174.529773 
L 701.070248 183.741945 
L 701.838843 183.741945 
L 702.607438 164.294027 
L 703.376033 167.364751 
L 704.144628 164.294027 
L 704.913223 166.341176 
L 705.681818 160.199729 
L 706.450413 155.081856 
L 707.219008 143.822535 
L 707.987603 146.893259 
L 708.756198 141.775386 
L 709.524793 137.681088 
L 710.293388 137.681088 
L 711.061983 143.822535 
L 711.830579 158.15258 
L 712.599174 160.199729 
L 713.367769 166.341176 
L 714.136364 161.223303 
L 714.904959 178.624072 
L 715.673554 161.223303 
L 716.442149 157.129005 
L 717.210744 147.916834 
L 717.979339 163.270453 
L 718.747934 172.482624 
L 719.516529 162.246878 
L 720.285124 160.199729 
L 721.053719 154.058281 
L 721.822314 150.987557 
L 722.590909 149.963983 
L 723.359504 155.081856 
L 724.128099 149.963983 
L 724.896694 156.10543 
L 725.665289 144.84611 
L 726.433884 135.633938 
L 727.202479 150.987557 
L 727.971074 154.058281 
L 728.739669 161.223303 
L 729.508264 159.176154 
L 730.27686 149.963983 
L 731.045455 162.246878 
L 731.81405 162.246878 
L 732.582645 169.4119 
L 733.35124 182.71837 
L 734.119835 191.930542 
L 734.88843 190.906967 
L 735.657025 174.529773 
L 736.42562 173.506199 
L 737.194215 173.506199 
L 737.96281 183.741945 
L 738.731405 182.71837 
L 739.5 188.859818 
L 740.268595 184.765519 
L 741.03719 173.506199 
L 741.805785 166.341176 
L 742.57438 152.011132 
L 743.342975 161.223303 
L 744.11157 141.775386 
L 744.880165 161.223303 
L 745.64876 157.129005 
L 746.417355 145.869684 
L 747.18595 139.728237 
L 747.954545 137.681088 
L 748.72314 139.728237 
L 749.491736 126.421767 
L 750.260331 128.468916 
L 751.028926 120.280319 
L 751.797521 128.468916 
L 752.566116 121.303894 
L 753.334711 107.997424 
L 754.103306 112.091723 
L 754.871901 130.516065 
L 755.640496 128.468916 
L 756.409091 139.728237 
L 757.177686 158.15258 
L 757.946281 152.011132 
L 758.714876 156.10543 
L 760.252066 169.4119 
L 761.020661 172.482624 
L 761.789256 179.647646 
L 762.557851 176.576922 
L 763.326446 183.741945 
L 764.095041 184.765519 
L 764.863636 175.553348 
L 765.632231 190.906967 
L 766.400826 189.883392 
L 767.169421 195.001265 
L 767.938017 176.576922 
L 768.706612 190.906967 
L 769.475207 188.859818 
L 771.012397 168.388326 
L 771.780992 168.388326 
L 772.549587 176.576922 
L 773.318182 168.388326 
L 774.086777 179.647646 
L 774.855372 176.576922 
L 775.623967 192.954116 
L 776.392562 188.859818 
L 777.161157 185.789094 
L 777.929752 199.095564 
L 778.698347 198.071989 
L 780.235537 191.930542 
L 781.004132 197.048415 
L 781.772727 197.048415 
L 782.541322 199.095564 
L 783.309917 202.166288 
L 784.078512 200.119138 
L 784.847107 187.836243 
L 785.615702 183.741945 
L 786.384298 178.624072 
L 787.152893 181.694796 
L 787.921488 172.482624 
L 788.690083 176.576922 
L 789.458678 173.506199 
L 790.227273 160.199729 
L 790.995868 140.751811 
L 791.764463 140.751811 
L 792.533058 159.176154 
L 793.301653 164.294027 
L 794.070248 184.765519 
L 794.838843 173.506199 
L 795.607438 184.765519 
L 796.376033 171.459049 
L 797.144628 174.529773 
L 797.913223 170.435475 
L 798.681818 186.812669 
L 799.450413 180.671221 
L 800.219008 179.647646 
L 800.987603 177.600497 
L 801.756198 157.129005 
L 802.524793 164.294027 
L 803.293388 165.317602 
L 804.061983 181.694796 
L 804.830579 167.364751 
L 805.599174 182.71837 
L 806.367769 173.506199 
L 807.136364 170.435475 
L 807.904959 164.294027 
L 808.673554 150.987557 
L 809.442149 169.4119 
L 810.210744 153.034707 
L 810.979339 154.058281 
L 811.747934 153.034707 
L 812.516529 166.341176 
L 813.285124 168.388326 
L 814.053719 163.270453 
L 814.822314 163.270453 
L 815.590909 157.129005 
L 816.359504 164.294027 
L 817.128099 161.223303 
L 817.896694 173.506199 
L 818.665289 175.553348 
L 819.433884 169.4119 
L 820.202479 169.4119 
L 820.971074 165.317602 
L 821.739669 176.576922 
L 822.508264 172.482624 
L 823.27686 173.506199 
L 824.045455 181.694796 
L 824.81405 186.812669 
L 825.582645 192.954116 
L 826.35124 188.859818 
L 827.119835 186.812669 
L 827.88843 186.812669 
L 828.657025 184.765519 
L 829.42562 191.930542 
L 830.194215 210.354884 
L 830.96281 221.614205 
L 831.731405 217.519907 
L 832.5 215.472757 
L 833.268595 197.048415 
L 834.03719 192.954116 
L 834.805785 199.095564 
L 835.57438 197.048415 
L 836.342975 202.166288 
L 837.11157 201.142713 
L 837.880165 202.166288 
L 838.64876 198.071989 
L 839.417355 183.741945 
L 840.18595 181.694796 
L 840.954545 198.071989 
L 841.72314 201.142713 
L 842.491736 203.189862 
L 843.260331 188.859818 
L 844.028926 177.600497 
L 845.566116 177.600497 
L 846.334711 176.576922 
L 847.103306 195.001265 
L 847.871901 199.095564 
L 849.409091 168.388326 
L 850.177686 168.388326 
L 851.714876 189.883392 
L 852.483471 177.600497 
L 853.252066 178.624072 
L 854.020661 182.71837 
L 854.789256 179.647646 
L 855.557851 174.529773 
L 856.326446 193.977691 
L 857.095041 210.354884 
L 857.863636 203.189862 
L 858.632231 199.095564 
L 859.400826 201.142713 
L 860.169421 198.071989 
L 860.938017 188.859818 
L 861.706612 182.71837 
L 862.475207 185.789094 
L 863.243802 189.883392 
L 864.012397 171.459049 
L 864.780992 174.529773 
L 865.549587 174.529773 
L 866.318182 182.71837 
L 867.086777 183.741945 
L 867.855372 197.048415 
L 868.623967 197.048415 
L 869.392562 205.237011 
L 870.161157 201.142713 
L 870.929752 193.977691 
L 871.698347 211.378459 
L 872.466942 204.213437 
L 873.235537 207.284161 
L 874.004132 204.213437 
L 874.772727 196.02484 
L 875.541322 190.906967 
L 876.309917 179.647646 
L 877.847107 147.916834 
L 878.615702 153.034707 
L 879.384298 143.822535 
L 880.152893 150.987557 
L 880.921488 141.775386 
L 881.690083 136.657513 
L 882.458678 124.374618 
L 883.995868 139.728237 
L 884.764463 135.633938 
L 885.533058 148.940408 
L 887.070248 155.081856 
L 887.838843 135.633938 
L 888.607438 143.822535 
L 889.376033 134.610364 
L 890.144628 149.963983 
L 890.913223 148.940408 
L 891.681818 141.775386 
L 892.450413 160.199729 
L 893.219008 166.341176 
L 893.987603 164.294027 
L 894.756198 168.388326 
L 895.524793 177.600497 
L 896.293388 171.459049 
L 897.061983 183.741945 
L 897.830579 186.812669 
L 898.599174 187.836243 
L 899.367769 205.237011 
L 900.136364 197.048415 
L 900.904959 183.741945 
L 901.673554 184.765519 
L 902.442149 172.482624 
L 903.979339 157.129005 
L 904.747934 144.84611 
L 905.516529 146.893259 
L 906.285124 145.869684 
L 907.053719 147.916834 
L 907.822314 140.751811 
L 908.590909 154.058281 
L 909.359504 144.84611 
L 910.128099 147.916834 
L 910.896694 154.058281 
L 911.665289 167.364751 
L 912.433884 186.812669 
L 913.202479 186.812669 
L 913.971074 184.765519 
L 914.739669 168.388326 
L 915.508264 182.71837 
L 916.27686 178.624072 
L 917.045455 186.812669 
L 917.81405 178.624072 
L 918.582645 180.671221 
L 919.35124 179.647646 
L 920.119835 160.199729 
L 920.88843 149.963983 
L 921.657025 145.869684 
L 922.42562 153.034707 
L 923.194215 156.10543 
L 923.96281 161.223303 
L 924.731405 152.011132 
L 925.5 171.459049 
L 926.268595 181.694796 
L 927.03719 185.789094 
L 927.805785 203.189862 
L 928.57438 206.260586 
L 929.342975 199.095564 
L 930.11157 198.071989 
L 930.880165 184.765519 
L 931.64876 178.624072 
L 932.417355 169.4119 
L 933.18595 154.058281 
L 933.954545 154.058281 
L 933.954545 154.058281 
" clip-path="url(#pfdea148075)" style="fill: none; stroke: #1f77b4; stroke-width: 1.5; stroke-linecap: square"/>
   </g>
   <g id="patch_3">
    <path d="M 135 246.282353 
L 135 86.4 
" style="fill: none; stroke: #000000; stroke-width: 0.8; stroke-linejoin: miter; stroke-linecap: square"/>
   </g>
   <g id="patch_4">
    <path d="M 972 246.282353 
L 972 86.4 
" style="fill: none; stroke: #000000; stroke-width: 0.8; stroke-linejoin: miter; stroke-linecap: square"/>
   </g>
   <g id="patch_5">
    <path d="M 135 246.282353 
L 972 246.282353 
" style="fill: none; stroke: #000000; stroke-width: 0.8; stroke-linejoin: miter; stroke-linecap: square"/>
   </g>
   <g id="patch_6">
    <path d="M 135 86.4 
L 972 86.4 
" style="fill: none; stroke: #000000; stroke-width: 0.8; stroke-linejoin: miter; stroke-linecap: square"/>
   </g>
  </g>
  <g id="axes_2">
   <g id="patch_7">
    <path d="M 135 438.141176 
L 972 438.141176 
L 972 278.258824 
L 135 278.258824 
z
" style="fill: #ffffff"/>
   </g>
   <g id="matplotlib.axis_3">
    <g id="xtick_7">
     <g id="line2d_14">
      <g>
       <use xlink:href="#mac403d6951" x="173.045455" y="438.141176" style="stroke: #000000; stroke-width: 0.8"/>
      </g>
     </g>
    </g>
    <g id="xtick_8">
     <g id="line2d_15">
      <g>
       <use xlink:href="#mac403d6951" x="326.764463" y="438.141176" style="stroke: #000000; stroke-width: 0.8"/>
      </g>
     </g>
    </g>
    <g id="xtick_9">
     <g id="line2d_16">
      <g>
       <use xlink:href="#mac403d6951" x="480.483471" y="438.141176" style="stroke: #000000; stroke-width: 0.8"/>
      </g>
     </g>
    </g>
    <g id="xtick_10">
     <g id="line2d_17">
      <g>
       <use xlink:href="#mac403d6951" x="634.202479" y="438.141176" style="stroke: #000000; stroke-width: 0.8"/>
      </g>
     </g>
    </g>
    <g id="xtick_11">
     <g id="line2d_18">
      <g>
       <use xlink:href="#mac403d6951" x="787.921488" y="438.141176" style="stroke: #000000; stroke-width: 0.8"/>
      </g>
     </g>
    </g>
    <g id="xtick_12">
     <g id="line2d_19">
      <g>
       <use xlink:href="#mac403d6951" x="941.640496" y="438.141176" style="stroke: #000000; stroke-width: 0.8"/>
      </g>
     </g>
    </g>
   </g>
   <g id="matplotlib.axis_4">
    <g id="ytick_7">
     <g id="line2d_20">
      <g>
       <use xlink:href="#mc5440a184e" x="135" y="404.345632" style="stroke: #000000; stroke-width: 0.8"/>
      </g>
     </g>
     <g id="text_8">
      <!-- 20 -->
      <g transform="translate(115.275 408.14485)scale(0.1 -0.1)">
       <use xlink:href="#DejaVuSans-32"/>
       <use xlink:href="#DejaVuSans-30" x="63.623047"/>
      </g>
     </g>
    </g>
    <g id="ytick_8">
     <g id="line2d_21">
      <g>
       <use xlink:href="#mc5440a184e" x="135" y="359.76048" style="stroke: #000000; stroke-width: 0.8"/>
      </g>
     </g>
     <g id="text_9">
      <!-- 40 -->
      <g transform="translate(115.275 363.559699)scale(0.1 -0.1)">
       <defs>
        <path id="DejaVuSans-34" d="M 2419 4116 
L 825 1625 
L 2419 1625 
L 2419 4116 
z
M 2253 4666 
L 3047 4666 
L 3047 1625 
L 3713 1625 
L 3713 1100 
L 3047 1100 
L 3047 0 
L 2419 0 
L 2419 1100 
L 313 1100 
L 313 1709 
L 2253 4666 
z
" transform="scale(0.015625)"/>
       </defs>
       <use xlink:href="#DejaVuSans-34"/>
       <use xlink:href="#DejaVuSans-30" x="63.623047"/>
      </g>
     </g>
    </g>
    <g id="ytick_9">
     <g id="line2d_22">
      <g>
       <use xlink:href="#mc5440a184e" x="135" y="315.175329" style="stroke: #000000; stroke-width: 0.8"/>
      </g>
     </g>
     <g id="text_10">
      <!-- 60 -->
      <g transform="translate(115.275 318.974548)scale(0.1 -0.1)">
       <defs>
        <path id="DejaVuSans-36" d="M 2113 2584 
Q 1688 2584 1439 2293 
Q 1191 2003 1191 1497 
Q 1191 994 1439 701 
Q 1688 409 2113 409 
Q 2538 409 2786 701 
Q 3034 994 3034 1497 
Q 3034 2003 2786 2293 
Q 2538 2584 2113 2584 
z
M 3366 4563 
L 3366 3988 
Q 3128 4100 2886 4159 
Q 2644 4219 2406 4219 
Q 1781 4219 1451 3797 
Q 1122 3375 1075 2522 
Q 1259 2794 1537 2939 
Q 1816 3084 2150 3084 
Q 2853 3084 3261 2657 
Q 3669 2231 3669 1497 
Q 3669 778 3244 343 
Q 2819 -91 2113 -91 
Q 1303 -91 875 529 
Q 447 1150 447 2328 
Q 447 3434 972 4092 
Q 1497 4750 2381 4750 
Q 2619 4750 2861 4703 
Q 3103 4656 3366 4563 
z
" transform="scale(0.015625)"/>
       </defs>
       <use xlink:href="#DejaVuSans-36"/>
       <use xlink:href="#DejaVuSans-30" x="63.623047"/>
      </g>
     </g>
    </g>
    <g id="text_11">
     <!-- survival time -->
     <g transform="translate(109.195312 390.675)rotate(-90)scale(0.1 -0.1)">
      <defs>
       <path id="DejaVuSans-75" d="M 544 1381 
L 544 3500 
L 1119 3500 
L 1119 1403 
Q 1119 906 1312 657 
Q 1506 409 1894 409 
Q 2359 409 2629 706 
Q 2900 1003 2900 1516 
L 2900 3500 
L 3475 3500 
L 3475 0 
L 2900 0 
L 2900 538 
Q 2691 219 2414 64 
Q 2138 -91 1772 -91 
Q 1169 -91 856 284 
Q 544 659 544 1381 
z
M 1991 3584 
L 1991 3584 
z
" transform="scale(0.015625)"/>
       <path id="DejaVuSans-76" d="M 191 3500 
L 800 3500 
L 1894 563 
L 2988 3500 
L 3597 3500 
L 2284 0 
L 1503 0 
L 191 3500 
z
" transform="scale(0.015625)"/>
       <path id="DejaVuSans-69" d="M 603 3500 
L 1178 3500 
L 1178 0 
L 603 0 
L 603 3500 
z
M 603 4863 
L 1178 4863 
L 1178 4134 
L 603 4134 
L 603 4863 
z
" transform="scale(0.015625)"/>
       <path id="DejaVuSans-61" d="M 2194 1759 
Q 1497 1759 1228 1600 
Q 959 1441 959 1056 
Q 959 750 1161 570 
Q 1363 391 1709 391 
Q 2188 391 2477 730 
Q 2766 1069 2766 1631 
L 2766 1759 
L 2194 1759 
z
M 3341 1997 
L 3341 0 
L 2766 0 
L 2766 531 
Q 2569 213 2275 61 
Q 1981 -91 1556 -91 
Q 1019 -91 701 211 
Q 384 513 384 1019 
Q 384 1609 779 1909 
Q 1175 2209 1959 2209 
L 2766 2209 
L 2766 2266 
Q 2766 2663 2505 2880 
Q 2244 3097 1772 3097 
Q 1472 3097 1187 3025 
Q 903 2953 641 2809 
L 641 3341 
Q 956 3463 1253 3523 
Q 1550 3584 1831 3584 
Q 2591 3584 2966 3190 
Q 3341 2797 3341 1997 
z
" transform="scale(0.015625)"/>
       <path id="DejaVuSans-6c" d="M 603 4863 
L 1178 4863 
L 1178 0 
L 603 0 
L 603 4863 
z
" transform="scale(0.015625)"/>
       <path id="DejaVuSans-20" transform="scale(0.015625)"/>
       <path id="DejaVuSans-74" d="M 1172 4494 
L 1172 3500 
L 2356 3500 
L 2356 3053 
L 1172 3053 
L 1172 1153 
Q 1172 725 1289 603 
Q 1406 481 1766 481 
L 2356 481 
L 2356 0 
L 1766 0 
Q 1100 0 847 248 
Q 594 497 594 1153 
L 594 3053 
L 172 3053 
L 172 3500 
L 594 3500 
L 594 4494 
L 1172 4494 
z
" transform="scale(0.015625)"/>
       <path id="DejaVuSans-6d" d="M 3328 2828 
Q 3544 3216 3844 3400 
Q 4144 3584 4550 3584 
Q 5097 3584 5394 3201 
Q 5691 2819 5691 2113 
L 5691 0 
L 5113 0 
L 5113 2094 
Q 5113 2597 4934 2840 
Q 4756 3084 4391 3084 
Q 3944 3084 3684 2787 
Q 3425 2491 3425 1978 
L 3425 0 
L 2847 0 
L 2847 2094 
Q 2847 2600 2669 2842 
Q 2491 3084 2119 3084 
Q 1678 3084 1418 2786 
Q 1159 2488 1159 1978 
L 1159 0 
L 581 0 
L 581 3500 
L 1159 3500 
L 1159 2956 
Q 1356 3278 1631 3431 
Q 1906 3584 2284 3584 
Q 2666 3584 2933 3390 
Q 3200 3197 3328 2828 
z
" transform="scale(0.015625)"/>
      </defs>
      <use xlink:href="#DejaVuSans-73"/>
      <use xlink:href="#DejaVuSans-75" x="52.099609"/>
      <use xlink:href="#DejaVuSans-72" x="115.478516"/>
      <use xlink:href="#DejaVuSans-76" x="156.591797"/>
      <use xlink:href="#DejaVuSans-69" x="215.771484"/>
      <use xlink:href="#DejaVuSans-76" x="243.554688"/>
      <use xlink:href="#DejaVuSans-61" x="302.734375"/>
      <use xlink:href="#DejaVuSans-6c" x="364.013672"/>
      <use xlink:href="#DejaVuSans-20" x="391.796875"/>
      <use xlink:href="#DejaVuSans-74" x="423.583984"/>
      <use xlink:href="#DejaVuSans-69" x="462.792969"/>
      <use xlink:href="#DejaVuSans-6d" x="490.576172"/>
      <use xlink:href="#DejaVuSans-65" x="587.988281"/>
     </g>
    </g>
   </g>
   <g id="line2d_23">
    <path d="M 173.045455 365.333624 
L 173.81405 365.110698 
L 174.582645 387.403274 
L 175.35124 365.779476 
L 176.119835 364.664847 
L 176.88843 381.607204 
L 177.657025 368.231659 
L 178.42562 376.702838 
L 179.194215 376.034061 
L 179.96281 365.110698 
L 180.731405 368.454585 
L 181.5 368.454585 
L 182.268595 366.225327 
L 183.805785 381.384279 
L 184.57438 363.99607 
L 185.342975 379.823798 
L 186.11157 379.600873 
L 186.880165 383.613536 
L 187.64876 390.970086 
L 188.417355 383.613536 
L 189.18595 383.836462 
L 189.954545 376.479912 
L 190.72314 384.505239 
L 191.491736 387.180348 
L 192.260331 388.963754 
L 193.028926 381.161353 
L 193.797521 359.983406 
L 194.566116 350.397599 
L 195.334711 353.741485 
L 196.103306 343.263974 
L 196.871901 330.111355 
L 197.640496 327.659171 
L 198.409091 331.448909 
L 199.177686 323.869433 
L 199.946281 331.225983 
L 200.714876 330.111355 
L 201.483471 332.117686 
L 202.252066 342.372271 
L 203.020661 328.996726 
L 203.789256 342.149345 
L 204.557851 335.015721 
L 205.326446 338.136682 
L 206.095041 334.346944 
L 206.863636 337.022053 
L 207.632231 343.263974 
L 208.400826 345.04738 
L 209.169421 362.435589 
L 209.938017 355.747817 
L 210.706612 359.76048 
L 211.475207 365.55655 
L 212.243802 377.817467 
L 213.012397 368.231659 
L 213.780992 364.664847 
L 214.549587 369.792139 
L 215.318182 374.027729 
L 216.855372 364.218995 
L 217.623967 368.677511 
L 218.392562 367.339956 
L 219.161157 356.63952 
L 219.929752 350.84345 
L 221.466942 367.339956 
L 222.235537 352.40393 
L 223.004132 350.84345 
L 224.541322 363.104367 
L 225.309917 346.162009 
L 226.078512 355.970742 
L 226.847107 360.429258 
L 227.615702 364.218995 
L 228.384298 366.894105 
L 229.152893 368.677511 
L 229.921488 380.046724 
L 230.690083 361.543886 
L 231.458678 348.614192 
L 232.227273 338.582533 
L 232.995868 345.270306 
L 234.533058 314.952403 
L 235.301653 305.589521 
L 236.070248 304.251967 
L 236.838843 298.232971 
L 237.607438 285.526203 
L 239.144628 312.723146 
L 239.913223 316.512883 
L 240.681818 328.105023 
L 241.450413 343.041049 
L 242.219008 352.626856 
L 242.987603 369.123362 
L 243.756198 373.136026 
L 244.524793 375.588209 
L 245.293388 387.6262 
L 246.061983 385.842794 
L 246.830579 386.511571 
L 247.599174 377.817467 
L 248.367769 377.371615 
L 249.136364 376.256986 
L 249.904959 387.849126 
L 250.673554 370.906768 
L 251.442149 372.244323 
L 252.210744 362.658515 
L 252.979339 351.512227 
L 253.747934 351.735153 
L 254.516529 333.009389 
L 255.285124 343.041049 
L 256.053719 335.907424 
L 256.822314 339.028385 
L 257.590909 326.321617 
L 258.359504 347.053712 
L 259.128099 345.04738 
L 259.896694 357.531223 
L 260.665289 354.187336 
L 261.433884 357.531223 
L 262.202479 378.486244 
L 262.971074 367.11703 
L 263.739669 358.422926 
L 264.508264 358.422926 
L 265.27686 363.773144 
L 266.045455 363.773144 
L 266.81405 366.894105 
L 267.582645 352.849782 
L 268.35124 345.939083 
L 269.119835 331.225983 
L 269.88843 328.550874 
L 270.657025 339.028385 
L 271.42562 355.747817 
L 272.194215 353.964411 
L 272.96281 348.837118 
L 273.731405 340.588865 
L 274.5 336.799127 
L 275.268595 336.799127 
L 276.03719 358.2 
L 276.805785 374.250655 
L 277.57438 371.35262 
L 278.342975 375.588209 
L 279.11157 372.690174 
L 279.880165 374.250655 
L 280.64876 380.715501 
L 281.417355 372.021397 
L 282.18595 374.47358 
L 283.72314 386.06572 
L 284.491736 382.053056 
L 285.260331 386.734497 
L 286.028926 386.734497 
L 286.797521 373.581877 
L 287.566116 355.970742 
L 289.103306 366.448253 
L 289.871901 348.168341 
L 290.640496 357.754148 
L 291.409091 342.818123 
L 292.177686 340.811791 
L 292.946281 321.863102 
L 293.714876 323.869433 
L 295.252066 352.626856 
L 296.020661 346.162009 
L 296.789256 356.862445 
L 297.557851 359.091703 
L 298.326446 352.40393 
L 299.095041 367.339956 
L 299.863636 348.614192 
L 300.632231 365.779476 
L 301.400826 353.295633 
L 302.169421 353.741485 
L 302.938017 331.671835 
L 303.706612 333.455241 
L 304.475207 333.455241 
L 305.243802 349.060044 
L 306.012397 337.022053 
L 306.780992 336.353276 
L 307.549587 357.754148 
L 308.318182 360.206332 
L 309.086777 367.785808 
L 309.855372 356.193668 
L 310.623967 363.99607 
L 311.392562 362.435589 
L 312.161157 361.989738 
L 312.929752 359.983406 
L 313.698347 374.027729 
L 314.466942 369.792139 
L 315.235537 376.925764 
L 316.004132 378.70917 
L 316.772727 382.944759 
L 317.541322 388.517903 
L 318.309917 402.562226 
L 319.078512 398.995414 
L 319.847107 399.887117 
L 320.615702 402.562226 
L 321.384298 404.345632 
L 322.152893 401.670523 
L 322.921488 388.740829 
L 323.690083 384.059388 
L 324.458678 384.951091 
L 325.227273 389.632532 
L 325.995868 376.256986 
L 326.764463 382.721833 
L 327.533058 363.773144 
L 328.301653 360.206332 
L 329.070248 358.2 
L 329.838843 361.543886 
L 330.607438 363.773144 
L 331.376033 368.008733 
L 332.144628 367.11703 
L 332.913223 363.327292 
L 333.681818 378.040392 
L 334.450413 363.327292 
L 335.219008 376.256986 
L 335.987603 376.702838 
L 336.756198 378.040392 
L 337.524793 360.875109 
L 338.293388 371.35262 
L 339.061983 367.11703 
L 339.830579 366.671179 
L 340.599174 369.123362 
L 341.367769 369.346288 
L 342.136364 383.613536 
L 342.904959 390.078383 
L 343.673554 381.83013 
L 344.442149 383.390611 
L 345.210744 404.345632 
L 345.979339 396.320304 
L 346.747934 383.167685 
L 347.516529 377.817467 
L 348.285124 374.696506 
L 349.053719 375.365283 
L 349.822314 360.652183 
L 350.590909 359.314629 
L 351.359504 368.454585 
L 352.128099 368.008733 
L 352.896694 355.970742 
L 353.665289 346.830786 
L 354.433884 359.537555 
L 355.202479 359.091703 
L 355.971074 347.053712 
L 357.508264 351.735153 
L 358.27686 348.614192 
L 359.045455 346.162009 
L 359.81405 339.920088 
L 360.582645 347.499564 
L 361.35124 343.263974 
L 362.119835 347.499564 
L 362.88843 349.28297 
L 363.657025 364.441921 
L 364.42562 362.881441 
L 365.194215 377.148689 
L 365.96281 381.161353 
L 366.731405 388.740829 
L 367.5 377.817467 
L 368.268595 371.35262 
L 369.03719 375.588209 
L 369.805785 372.244323 
L 370.57438 363.550218 
L 371.342975 362.435589 
L 372.11157 364.441921 
L 372.880165 361.543886 
L 373.64876 348.837118 
L 374.417355 346.607861 
L 375.18595 363.773144 
L 375.954545 355.524891 
L 376.72314 373.136026 
L 377.491736 372.690174 
L 378.260331 378.040392 
L 379.028926 374.250655 
L 379.797521 367.562882 
L 380.566116 356.193668 
L 381.334711 361.989738 
L 382.103306 359.091703 
L 382.871901 343.263974 
L 383.640496 353.295633 
L 384.409091 349.951747 
L 385.177686 329.442577 
L 385.946281 337.467905 
L 386.714876 335.461573 
L 387.483471 341.257642 
L 388.252066 337.467905 
L 389.020661 326.544543 
L 389.789256 317.850438 
L 390.557851 334.346944 
L 391.326446 338.805459 
L 392.095041 338.805459 
L 392.863636 350.84345 
L 393.632231 348.614192 
L 394.400826 332.786464 
L 395.169421 324.984062 
L 395.938017 327.659171 
L 396.706612 332.563538 
L 397.475207 345.939083 
L 398.243802 336.13035 
L 399.012397 330.33428 
L 399.780992 326.321617 
L 400.549587 321.194324 
L 401.318182 324.092359 
L 402.086777 336.576202 
L 402.855372 329.219652 
L 403.623967 339.697162 
L 405.161157 334.792796 
L 405.929752 331.003058 
L 406.698347 333.678167 
L 407.466942 339.028385 
L 408.235537 355.301965 
L 409.004132 350.84345 
L 409.772727 363.550218 
L 410.541322 359.091703 
L 411.309917 359.76048 
L 412.078512 370.015065 
L 412.847107 372.9131 
L 413.615702 388.517903 
L 414.384298 396.320304 
L 415.152893 398.326636 
L 415.921488 399.441265 
L 416.690083 404.122706 
L 417.458678 403.231003 
L 418.227273 418.389954 
L 419.764463 430.427945 
L 420.533058 430.873797 
L 421.301653 415.49192 
L 422.070248 415.046068 
L 422.838843 400.77882 
L 423.607438 401.670523 
L 424.376033 395.874453 
L 425.144628 395.428601 
L 425.913223 400.555894 
L 426.681818 398.549562 
L 427.450413 394.313973 
L 428.219008 372.467248 
L 428.987603 386.511571 
L 429.756198 378.040392 
L 430.524793 392.084715 
L 431.293388 375.811135 
L 432.061983 380.715501 
L 432.830579 365.779476 
L 433.599174 366.225327 
L 434.367769 360.206332 
L 435.136364 352.849782 
L 435.904959 374.250655 
L 436.673554 375.588209 
L 437.442149 379.155021 
L 438.210744 372.690174 
L 438.979339 384.059388 
L 439.747934 381.83013 
L 440.516529 397.434933 
L 441.285124 379.823798 
L 442.053719 385.842794 
L 442.822314 395.651527 
L 443.590909 373.358951 
L 444.359504 373.358951 
L 445.128099 370.683842 
L 445.896694 375.365283 
L 446.665289 378.932095 
L 447.433884 377.371615 
L 448.202479 378.932095 
L 448.971074 396.54323 
L 449.739669 391.193012 
L 450.508264 387.6262 
L 451.27686 406.129038 
L 452.045455 405.46026 
L 452.81405 409.249998 
L 453.582645 396.320304 
L 454.35124 396.54323 
L 455.119835 396.097379 
L 455.88843 393.645195 
L 456.657025 387.180348 
L 457.42562 394.98275 
L 458.194215 392.307641 
L 458.96281 394.091047 
L 459.731405 385.396942 
L 460.5 373.136026 
L 461.268595 388.072051 
L 462.03719 388.294977 
L 462.805785 382.275982 
L 463.57438 384.728165 
L 464.342975 390.301309 
L 465.11157 386.957423 
L 465.880165 392.530567 
L 466.64876 382.721833 
L 467.417355 389.409606 
L 468.954545 378.040392 
L 469.72314 373.358951 
L 470.491736 382.275982 
L 471.260331 375.588209 
L 472.028926 376.256986 
L 472.797521 377.148689 
L 473.566116 363.773144 
L 474.334711 373.136026 
L 475.103306 372.244323 
L 475.871901 386.06572 
L 476.640496 388.517903 
L 477.409091 381.83013 
L 478.177686 380.26965 
L 478.946281 386.957423 
L 479.714876 386.288645 
L 480.483471 388.517903 
L 481.252066 401.224671 
L 482.020661 400.77882 
L 482.789256 401.001745 
L 483.557851 407.466592 
L 484.326446 410.141701 
L 485.095041 420.842138 
L 485.863636 413.485588 
L 486.632231 409.918776 
L 487.400826 410.810479 
L 488.169421 405.014409 
L 488.938017 407.243667 
L 489.706612 405.237335 
L 490.475207 403.89978 
L 491.243802 390.301309 
L 492.012397 386.288645 
L 492.780992 385.396942 
L 493.549587 395.874453 
L 494.318182 395.428601 
L 495.086777 393.868121 
L 495.855372 398.103711 
L 496.623967 398.549562 
L 497.392562 400.332968 
L 498.161157 392.307641 
L 498.929752 406.351964 
L 499.698347 409.027073 
L 500.466942 386.511571 
L 501.235537 372.244323 
L 502.004132 350.620524 
L 504.309917 331.225983 
L 505.078512 331.448909 
L 505.847107 320.302621 
L 506.615702 316.958735 
L 507.384298 298.678823 
L 508.152893 313.168997 
L 508.921488 324.315285 
L 509.690083 347.945415 
L 510.458678 339.028385 
L 511.227273 341.703494 
L 511.995868 340.811791 
L 512.764463 329.442577 
L 513.533058 338.136682 
L 514.301653 339.474236 
L 515.070248 337.244979 
L 515.838843 336.13035 
L 516.607438 332.563538 
L 517.376033 331.003058 
L 518.144628 325.652839 
L 519.681818 296.895417 
L 520.450413 310.716814 
L 521.219008 322.086027 
L 521.987603 309.825111 
L 522.756198 324.984062 
L 523.524793 314.283626 
L 524.293388 309.379259 
L 525.061983 311.831443 
L 525.830579 332.340612 
L 526.599174 338.582533 
L 527.367769 337.022053 
L 528.136364 328.105023 
L 528.904959 328.550874 
L 529.673554 339.251311 
L 530.442149 340.588865 
L 531.210744 360.652183 
L 531.979339 372.9131 
L 532.747934 368.008733 
L 533.516529 348.614192 
L 534.285124 359.983406 
L 535.053719 381.83013 
L 535.822314 376.256986 
L 536.590909 369.569214 
L 537.359504 357.085371 
L 538.128099 358.2 
L 538.896694 359.537555 
L 539.665289 352.849782 
L 540.433884 355.079039 
L 541.202479 367.785808 
L 541.971074 370.237991 
L 542.739669 371.35262 
L 544.27686 387.849126 
L 545.045455 405.014409 
L 545.81405 402.3393 
L 546.582645 403.231003 
L 548.119835 395.205676 
L 549.657025 369.346288 
L 550.42562 362.212664 
L 551.194215 368.900436 
L 551.96281 370.460917 
L 552.731405 361.766812 
L 553.5 359.76048 
L 554.268595 353.072708 
L 555.03719 354.187336 
L 556.57438 360.875109 
L 557.342975 373.358951 
L 558.11157 370.237991 
L 558.880165 351.735153 
L 559.64876 348.837118 
L 560.417355 356.63952 
L 561.18595 355.301965 
L 561.954545 361.989738 
L 562.72314 359.76048 
L 563.491736 359.983406 
L 564.260331 366.448253 
L 565.028926 366.448253 
L 565.797521 368.454585 
L 566.566116 377.594541 
L 567.334711 380.492576 
L 568.103306 380.26965 
L 569.640496 366.894105 
L 570.409091 376.925764 
L 571.177686 381.161353 
L 571.946281 378.70917 
L 572.714876 367.562882 
L 573.483471 365.110698 
L 574.252066 374.919432 
L 575.020661 370.906768 
L 575.789256 371.798471 
L 576.557851 383.390611 
L 577.326446 389.855457 
L 578.095041 384.728165 
L 578.863636 372.690174 
L 579.632231 384.059388 
L 580.400826 383.836462 
L 581.169421 392.753492 
L 581.938017 376.702838 
L 582.706612 372.244323 
L 583.475207 373.581877 
L 584.243802 359.537555 
L 585.012397 353.072708 
L 585.780992 355.524891 
L 586.549587 363.99607 
L 587.318182 357.308297 
L 588.086777 368.677511 
L 588.855372 367.339956 
L 589.623967 381.607204 
L 590.392562 382.275982 
L 591.161157 375.365283 
L 591.929752 395.205676 
L 592.698347 398.549562 
L 593.466942 399.218339 
L 594.235537 380.938427 
L 595.772727 358.868777 
L 596.541322 336.799127 
L 597.309917 334.792796 
L 598.078512 341.703494 
L 599.615702 334.56987 
L 600.384298 337.244979 
L 601.152893 336.576202 
L 602.690083 371.575545 
L 603.458678 383.167685 
L 604.227273 397.212007 
L 604.995868 401.224671 
L 605.764463 401.893448 
L 606.533058 405.46026 
L 607.301653 392.976418 
L 608.838843 384.728165 
L 609.607438 369.346288 
L 610.376033 370.015065 
L 611.144628 369.569214 
L 611.913223 368.454585 
L 612.681818 358.645852 
L 613.450413 356.416594 
L 614.219008 363.104367 
L 614.987603 378.040392 
L 615.756198 378.040392 
L 616.524793 368.454585 
L 617.293388 384.951091 
L 618.061983 379.377947 
L 618.830579 368.231659 
L 619.599174 362.658515 
L 620.367769 363.104367 
L 621.136364 361.766812 
L 621.904959 361.766812 
L 622.673554 357.308297 
L 623.442149 353.518559 
L 624.210744 363.550218 
L 624.979339 366.002401 
L 625.747934 369.346288 
L 628.053719 402.785151 
L 628.822314 396.097379 
L 629.590909 367.785808 
L 630.359504 366.225327 
L 631.128099 373.136026 
L 631.896694 376.479912 
L 632.665289 374.47358 
L 633.433884 378.932095 
L 634.202479 372.244323 
L 634.971074 374.027729 
L 636.508264 350.84345 
L 637.27686 374.250655 
L 638.045455 357.977074 
L 638.81405 353.518559 
L 639.582645 339.028385 
L 640.35124 337.467905 
L 641.119835 336.799127 
L 641.88843 338.359608 
L 642.657025 325.206988 
L 643.42562 334.346944 
L 644.194215 353.072708 
L 644.96281 351.512227 
L 645.731405 373.358951 
L 646.5 371.129694 
L 647.268595 379.823798 
L 648.03719 362.881441 
L 648.805785 349.728821 
L 649.57438 354.633188 
L 650.342975 372.021397 
L 651.11157 360.429258 
L 651.880165 341.703494 
L 652.64876 347.722489 
L 653.417355 345.04738 
L 654.18595 343.932752 
L 654.954545 346.162009 
L 655.72314 346.830786 
L 656.491736 359.76048 
L 657.260331 358.422926 
L 658.028926 356.63952 
L 658.797521 368.231659 
L 659.566116 388.963754 
L 660.334711 385.396942 
L 661.103306 389.855457 
L 661.871901 393.645195 
L 662.640496 401.447597 
L 663.409091 402.116374 
L 664.177686 385.174017 
L 664.946281 384.282314 
L 665.714876 383.167685 
L 666.483471 378.70917 
L 667.252066 379.600873 
L 668.020661 377.371615 
L 668.789256 374.47358 
L 669.557851 374.47358 
L 670.326446 369.569214 
L 671.863636 401.893448 
L 673.400826 375.365283 
L 674.169421 368.231659 
L 674.938017 352.40393 
L 675.706612 345.270306 
L 676.475207 337.022053 
L 677.243802 337.467905 
L 678.780992 326.544543 
L 679.549587 328.996726 
L 680.318182 337.244979 
L 681.086777 331.671835 
L 681.855372 338.136682 
L 682.623967 353.518559 
L 683.392562 364.664847 
L 684.161157 373.581877 
L 685.698347 367.11703 
L 686.466942 367.11703 
L 687.235537 368.008733 
L 688.004132 376.034061 
L 688.772727 394.536898 
L 689.541322 402.3393 
L 690.309917 396.989082 
L 691.078512 382.053056 
L 691.847107 364.218995 
L 692.615702 363.550218 
L 693.384298 364.218995 
L 694.152893 368.900436 
L 694.921488 368.677511 
L 695.690083 350.84345 
L 696.458678 338.359608 
L 697.227273 332.117686 
L 697.995868 337.913756 
L 699.533058 363.99607 
L 700.301653 370.460917 
L 701.070248 378.70917 
L 701.838843 377.371615 
L 702.607438 355.079039 
L 703.376033 358.2 
L 704.144628 354.410262 
L 704.913223 357.308297 
L 705.681818 350.397599 
L 706.450413 346.162009 
L 707.219008 336.13035 
L 707.987603 338.805459 
L 708.756198 333.901092 
L 709.524793 331.894761 
L 710.293388 336.13035 
L 711.061983 339.697162 
L 711.830579 354.187336 
L 712.599174 356.416594 
L 713.367769 360.875109 
L 714.136364 355.524891 
L 714.904959 373.136026 
L 715.673554 355.747817 
L 716.442149 353.964411 
L 717.210744 343.709826 
L 717.979339 358.645852 
L 718.747934 369.346288 
L 719.516529 361.766812 
L 720.285124 358.868777 
L 721.053719 356.416594 
L 721.822314 348.391267 
L 722.590909 346.162009 
L 723.359504 353.741485 
L 724.128099 348.614192 
L 724.896694 354.856114 
L 725.665289 342.818123 
L 726.433884 335.461573 
L 727.202479 347.276638 
L 727.971074 351.512227 
L 728.739669 356.416594 
L 729.508264 355.524891 
L 730.27686 339.920088 
L 731.045455 349.060044 
L 731.81405 352.849782 
L 732.582645 359.537555 
L 733.35124 372.9131 
L 734.119835 380.715501 
L 734.88843 379.823798 
L 735.657025 365.55655 
L 736.42562 365.55655 
L 737.194215 364.664847 
L 737.96281 382.498908 
L 738.731405 381.384279 
L 739.5 381.607204 
L 740.268595 377.594541 
L 741.03719 365.333624 
L 741.805785 359.983406 
L 742.57438 346.607861 
L 743.342975 354.856114 
L 744.11157 327.659171 
L 744.880165 349.728821 
L 745.64876 344.601529 
L 746.417355 334.346944 
L 747.18595 328.7738 
L 747.954545 326.990394 
L 748.72314 332.340612 
L 749.491736 314.729477 
L 750.260331 318.073364 
L 751.028926 310.048036 
L 751.797521 330.33428 
L 752.566116 322.754805 
L 753.334711 310.93974 
L 754.103306 318.073364 
L 754.871901 334.124018 
L 755.640496 333.232315 
L 756.409091 341.480568 
L 757.177686 362.212664 
L 757.946281 354.633188 
L 758.714876 360.652183 
L 759.483471 361.989738 
L 760.252066 367.562882 
L 761.020661 369.123362 
L 761.789256 373.136026 
L 762.557851 370.237991 
L 763.326446 375.811135 
L 764.095041 375.811135 
L 764.863636 366.225327 
L 765.632231 381.607204 
L 766.400826 379.377947 
L 767.169421 384.505239 
L 767.938017 368.677511 
L 768.706612 383.390611 
L 769.475207 381.607204 
L 771.012397 366.894105 
L 771.780992 367.562882 
L 772.549587 377.371615 
L 773.318182 367.339956 
L 774.086777 377.594541 
L 774.855372 374.250655 
L 775.623967 390.747161 
L 776.392562 385.174017 
L 777.161157 381.607204 
L 777.929752 394.536898 
L 778.698347 392.530567 
L 780.235537 386.511571 
L 781.004132 393.868121 
L 781.772727 392.307641 
L 782.541322 395.428601 
L 783.309917 395.874453 
L 784.078512 396.097379 
L 784.847107 380.715501 
L 785.615702 374.47358 
L 786.384298 367.11703 
L 787.152893 370.237991 
L 787.921488 359.76048 
L 788.690083 363.327292 
L 789.458678 361.989738 
L 790.227273 349.728821 
L 790.995868 331.894761 
L 791.764463 332.117686 
L 792.533058 353.518559 
L 793.301653 359.314629 
L 794.070248 379.600873 
L 794.838843 363.773144 
L 795.607438 376.702838 
L 796.376033 362.435589 
L 797.144628 364.441921 
L 797.913223 354.633188 
L 798.681818 370.015065 
L 799.450413 364.441921 
L 800.219008 362.881441 
L 800.987603 360.875109 
L 801.756198 339.251311 
L 802.524793 352.40393 
L 803.293388 350.620524 
L 804.061983 366.894105 
L 804.830579 354.187336 
L 805.599174 372.467248 
L 806.367769 366.002401 
L 807.136364 361.989738 
L 807.904959 356.63952 
L 808.673554 342.372271 
L 809.442149 363.550218 
L 810.210744 350.620524 
L 810.979339 353.741485 
L 811.747934 353.741485 
L 812.516529 366.448253 
L 813.285124 370.015065 
L 814.053719 364.441921 
L 814.822314 362.881441 
L 815.590909 356.63952 
L 816.359504 365.55655 
L 817.128099 358.2 
L 817.896694 366.448253 
L 818.665289 366.225327 
L 819.433884 359.537555 
L 820.202479 359.314629 
L 820.971074 356.63952 
L 821.739669 363.104367 
L 822.508264 360.206332 
L 823.27686 361.766812 
L 824.81405 378.040392 
L 825.582645 383.836462 
L 826.35124 381.83013 
L 827.119835 380.938427 
L 827.88843 379.600873 
L 828.657025 377.148689 
L 829.42562 386.511571 
L 830.194215 404.791483 
L 830.96281 415.268994 
L 831.731405 409.472924 
L 832.5 408.358295 
L 833.268595 390.524235 
L 834.03719 387.180348 
L 834.805785 392.530567 
L 835.57438 392.307641 
L 836.342975 394.98275 
L 837.11157 394.091047 
L 837.880165 394.98275 
L 838.64876 393.868121 
L 839.417355 380.046724 
L 840.18595 378.263318 
L 840.954545 393.199344 
L 841.72314 395.428601 
L 842.491736 396.766156 
L 843.260331 381.607204 
L 844.028926 374.250655 
L 844.797521 375.588209 
L 845.566116 376.256986 
L 846.334711 373.804803 
L 847.103306 392.307641 
L 847.871901 394.98275 
L 848.640496 381.161353 
L 849.409091 361.098035 
L 850.177686 358.422926 
L 850.946281 370.906768 
L 851.714876 378.932095 
L 852.483471 369.123362 
L 853.252066 368.008733 
L 854.020661 370.460917 
L 854.789256 367.562882 
L 855.557851 363.99607 
L 857.095041 401.893448 
L 857.863636 399.441265 
L 858.632231 394.98275 
L 859.400826 396.320304 
L 860.169421 391.861789 
L 860.938017 386.511571 
L 861.706612 383.390611 
L 862.475207 385.842794 
L 863.243802 388.740829 
L 864.012397 371.129694 
L 864.780992 375.588209 
L 865.549587 376.702838 
L 866.318182 385.174017 
L 867.086777 384.728165 
L 867.855372 396.766156 
L 868.623967 392.753492 
L 869.392562 398.326636 
L 870.161157 395.874453 
L 870.929752 386.288645 
L 871.698347 403.89978 
L 872.466942 396.766156 
L 873.235537 398.549562 
L 874.004132 394.759824 
L 874.772727 386.734497 
L 875.541322 383.167685 
L 876.309917 371.35262 
L 877.847107 338.582533 
L 878.615702 345.939083 
L 879.384298 337.467905 
L 880.152893 343.709826 
L 880.921488 329.665503 
L 881.690083 324.092359 
L 882.458678 312.946071 
L 883.227273 317.181661 
L 883.995868 327.21332 
L 884.764463 322.086027 
L 885.533058 337.244979 
L 886.301653 340.143014 
L 887.070248 341.703494 
L 887.838843 321.41725 
L 888.607438 332.786464 
L 889.376033 318.519215 
L 890.144628 332.786464 
L 890.913223 334.346944 
L 891.681818 322.308953 
L 892.450413 340.143014 
L 893.219008 346.384935 
L 893.987603 344.601529 
L 894.756198 349.060044 
L 895.524793 361.989738 
L 896.293388 358.2 
L 897.061983 374.919432 
L 897.830579 380.26965 
L 898.599174 380.26965 
L 899.367769 402.116374 
L 900.136364 396.54323 
L 900.904959 379.600873 
L 901.673554 379.155021 
L 902.442149 368.677511 
L 903.210744 362.658515 
L 903.979339 352.40393 
L 904.747934 338.136682 
L 905.516529 339.251311 
L 906.285124 335.907424 
L 907.053719 337.022053 
L 907.822314 330.33428 
L 908.590909 345.270306 
L 909.359504 337.244979 
L 910.128099 343.263974 
L 910.896694 347.276638 
L 911.665289 360.206332 
L 912.433884 382.275982 
L 913.202479 382.275982 
L 913.971074 383.390611 
L 914.739669 368.454585 
L 915.508264 381.607204 
L 916.27686 376.925764 
L 917.045455 384.728165 
L 917.81405 373.581877 
L 918.582645 372.690174 
L 919.35124 372.021397 
L 920.119835 348.391267 
L 921.657025 333.232315 
L 922.42562 339.474236 
L 923.194215 340.143014 
L 923.96281 346.607861 
L 924.731405 338.359608 
L 925.5 355.747817 
L 926.268595 366.448253 
L 927.03719 369.123362 
L 927.805785 389.632532 
L 928.57438 387.849126 
L 929.342975 386.734497 
L 930.11157 388.740829 
L 930.880165 377.148689 
L 931.64876 370.906768 
L 933.18595 343.932752 
L 933.954545 342.818123 
L 933.954545 342.818123 
" clip-path="url(#p84e55274b0)" style="fill: none; stroke: #1f77b4; stroke-width: 1.5; stroke-linecap: square"/>
   </g>
   <g id="patch_8">
    <path d="M 135 438.141176 
L 135 278.258824 
" style="fill: none; stroke: #000000; stroke-width: 0.8; stroke-linejoin: miter; stroke-linecap: square"/>
   </g>
   <g id="patch_9">
    <path d="M 972 438.141176 
L 972 278.258824 
" style="fill: none; stroke: #000000; stroke-width: 0.8; stroke-linejoin: miter; stroke-linecap: square"/>
   </g>
   <g id="patch_10">
    <path d="M 135 438.141176 
L 972 438.141176 
" style="fill: none; stroke: #000000; stroke-width: 0.8; stroke-linejoin: miter; stroke-linecap: square"/>
   </g>
   <g id="patch_11">
    <path d="M 135 278.258824 
L 972 278.258824 
" style="fill: none; stroke: #000000; stroke-width: 0.8; stroke-linejoin: miter; stroke-linecap: square"/>
   </g>
  </g>
  <g id="axes_3">
   <g id="patch_12">
    <path d="M 135 630 
L 972 630 
L 972 470.117647 
L 135 470.117647 
z
" style="fill: #ffffff"/>
   </g>
   <g id="matplotlib.axis_5">
    <g id="xtick_13">
     <g id="line2d_24">
      <g>
       <use xlink:href="#mac403d6951" x="173.045455" y="630" style="stroke: #000000; stroke-width: 0.8"/>
      </g>
     </g>
     <g id="text_12">
      <!-- 0 -->
      <g transform="translate(169.864205 644.598438)scale(0.1 -0.1)">
       <use xlink:href="#DejaVuSans-30"/>
      </g>
     </g>
    </g>
    <g id="xtick_14">
     <g id="line2d_25">
      <g>
       <use xlink:href="#mac403d6951" x="326.764463" y="630" style="stroke: #000000; stroke-width: 0.8"/>
      </g>
     </g>
     <g id="text_13">
      <!-- 200 -->
      <g transform="translate(317.220713 644.598438)scale(0.1 -0.1)">
       <use xlink:href="#DejaVuSans-32"/>
       <use xlink:href="#DejaVuSans-30" x="63.623047"/>
       <use xlink:href="#DejaVuSans-30" x="127.246094"/>
      </g>
     </g>
    </g>
    <g id="xtick_15">
     <g id="line2d_26">
      <g>
       <use xlink:href="#mac403d6951" x="480.483471" y="630" style="stroke: #000000; stroke-width: 0.8"/>
      </g>
     </g>
     <g id="text_14">
      <!-- 400 -->
      <g transform="translate(470.939721 644.598438)scale(0.1 -0.1)">
       <use xlink:href="#DejaVuSans-34"/>
       <use xlink:href="#DejaVuSans-30" x="63.623047"/>
       <use xlink:href="#DejaVuSans-30" x="127.246094"/>
      </g>
     </g>
    </g>
    <g id="xtick_16">
     <g id="line2d_27">
      <g>
       <use xlink:href="#mac403d6951" x="634.202479" y="630" style="stroke: #000000; stroke-width: 0.8"/>
      </g>
     </g>
     <g id="text_15">
      <!-- 600 -->
      <g transform="translate(624.658729 644.598438)scale(0.1 -0.1)">
       <use xlink:href="#DejaVuSans-36"/>
       <use xlink:href="#DejaVuSans-30" x="63.623047"/>
       <use xlink:href="#DejaVuSans-30" x="127.246094"/>
      </g>
     </g>
    </g>
    <g id="xtick_17">
     <g id="line2d_28">
      <g>
       <use xlink:href="#mac403d6951" x="787.921488" y="630" style="stroke: #000000; stroke-width: 0.8"/>
      </g>
     </g>
     <g id="text_16">
      <!-- 800 -->
      <g transform="translate(778.377738 644.598438)scale(0.1 -0.1)">
       <defs>
        <path id="DejaVuSans-38" d="M 2034 2216 
Q 1584 2216 1326 1975 
Q 1069 1734 1069 1313 
Q 1069 891 1326 650 
Q 1584 409 2034 409 
Q 2484 409 2743 651 
Q 3003 894 3003 1313 
Q 3003 1734 2745 1975 
Q 2488 2216 2034 2216 
z
M 1403 2484 
Q 997 2584 770 2862 
Q 544 3141 544 3541 
Q 544 4100 942 4425 
Q 1341 4750 2034 4750 
Q 2731 4750 3128 4425 
Q 3525 4100 3525 3541 
Q 3525 3141 3298 2862 
Q 3072 2584 2669 2484 
Q 3125 2378 3379 2068 
Q 3634 1759 3634 1313 
Q 3634 634 3220 271 
Q 2806 -91 2034 -91 
Q 1263 -91 848 271 
Q 434 634 434 1313 
Q 434 1759 690 2068 
Q 947 2378 1403 2484 
z
M 1172 3481 
Q 1172 3119 1398 2916 
Q 1625 2713 2034 2713 
Q 2441 2713 2670 2916 
Q 2900 3119 2900 3481 
Q 2900 3844 2670 4047 
Q 2441 4250 2034 4250 
Q 1625 4250 1398 4047 
Q 1172 3844 1172 3481 
z
" transform="scale(0.015625)"/>
       </defs>
       <use xlink:href="#DejaVuSans-38"/>
       <use xlink:href="#DejaVuSans-30" x="63.623047"/>
       <use xlink:href="#DejaVuSans-30" x="127.246094"/>
      </g>
     </g>
    </g>
    <g id="xtick_18">
     <g id="line2d_29">
      <g>
       <use xlink:href="#mac403d6951" x="941.640496" y="630" style="stroke: #000000; stroke-width: 0.8"/>
      </g>
     </g>
     <g id="text_17">
      <!-- 1000 -->
      <g transform="translate(928.915496 644.598438)scale(0.1 -0.1)">
       <use xlink:href="#DejaVuSans-31"/>
       <use xlink:href="#DejaVuSans-30" x="63.623047"/>
       <use xlink:href="#DejaVuSans-30" x="127.246094"/>
       <use xlink:href="#DejaVuSans-30" x="190.869141"/>
      </g>
     </g>
    </g>
    <g id="text_18">
     <!-- rounds -->
     <g transform="translate(536.38125 658.276562)scale(0.1 -0.1)">
      <defs>
       <path id="DejaVuSans-6e" d="M 3513 2113 
L 3513 0 
L 2938 0 
L 2938 2094 
Q 2938 2591 2744 2837 
Q 2550 3084 2163 3084 
Q 1697 3084 1428 2787 
Q 1159 2491 1159 1978 
L 1159 0 
L 581 0 
L 581 3500 
L 1159 3500 
L 1159 2956 
Q 1366 3272 1645 3428 
Q 1925 3584 2291 3584 
Q 2894 3584 3203 3211 
Q 3513 2838 3513 2113 
z
" transform="scale(0.015625)"/>
       <path id="DejaVuSans-64" d="M 2906 2969 
L 2906 4863 
L 3481 4863 
L 3481 0 
L 2906 0 
L 2906 525 
Q 2725 213 2448 61 
Q 2172 -91 1784 -91 
Q 1150 -91 751 415 
Q 353 922 353 1747 
Q 353 2572 751 3078 
Q 1150 3584 1784 3584 
Q 2172 3584 2448 3432 
Q 2725 3281 2906 2969 
z
M 947 1747 
Q 947 1113 1208 752 
Q 1469 391 1925 391 
Q 2381 391 2643 752 
Q 2906 1113 2906 1747 
Q 2906 2381 2643 2742 
Q 2381 3103 1925 3103 
Q 1469 3103 1208 2742 
Q 947 2381 947 1747 
z
" transform="scale(0.015625)"/>
      </defs>
      <use xlink:href="#DejaVuSans-72"/>
      <use xlink:href="#DejaVuSans-6f" x="38.863281"/>
      <use xlink:href="#DejaVuSans-75" x="100.044922"/>
      <use xlink:href="#DejaVuSans-6e" x="163.423828"/>
      <use xlink:href="#DejaVuSans-64" x="226.802734"/>
      <use xlink:href="#DejaVuSans-73" x="290.279297"/>
     </g>
    </g>
   </g>
   <g id="matplotlib.axis_6">
    <g id="ytick_10">
     <g id="line2d_30">
      <g>
       <use xlink:href="#mc5440a184e" x="135" y="591.824681" style="stroke: #000000; stroke-width: 0.8"/>
      </g>
     </g>
     <g id="text_19">
      <!-- 100 -->
      <g transform="translate(108.9125 595.6239)scale(0.1 -0.1)">
       <use xlink:href="#DejaVuSans-31"/>
       <use xlink:href="#DejaVuSans-30" x="63.623047"/>
       <use xlink:href="#DejaVuSans-30" x="127.246094"/>
      </g>
     </g>
    </g>
    <g id="ytick_11">
     <g id="line2d_31">
      <g>
       <use xlink:href="#mc5440a184e" x="135" y="551.684501" style="stroke: #000000; stroke-width: 0.8"/>
      </g>
     </g>
     <g id="text_20">
      <!-- 200 -->
      <g transform="translate(108.9125 555.48372)scale(0.1 -0.1)">
       <use xlink:href="#DejaVuSans-32"/>
       <use xlink:href="#DejaVuSans-30" x="63.623047"/>
       <use xlink:href="#DejaVuSans-30" x="127.246094"/>
      </g>
     </g>
    </g>
    <g id="ytick_12">
     <g id="line2d_32">
      <g>
       <use xlink:href="#mc5440a184e" x="135" y="511.54432" style="stroke: #000000; stroke-width: 0.8"/>
      </g>
     </g>
     <g id="text_21">
      <!-- 300 -->
      <g transform="translate(108.9125 515.343539)scale(0.1 -0.1)">
       <defs>
        <path id="DejaVuSans-33" d="M 2597 2516 
Q 3050 2419 3304 2112 
Q 3559 1806 3559 1356 
Q 3559 666 3084 287 
Q 2609 -91 1734 -91 
Q 1441 -91 1130 -33 
Q 819 25 488 141 
L 488 750 
Q 750 597 1062 519 
Q 1375 441 1716 441 
Q 2309 441 2620 675 
Q 2931 909 2931 1356 
Q 2931 1769 2642 2001 
Q 2353 2234 1838 2234 
L 1294 2234 
L 1294 2753 
L 1863 2753 
Q 2328 2753 2575 2939 
Q 2822 3125 2822 3475 
Q 2822 3834 2567 4026 
Q 2313 4219 1838 4219 
Q 1578 4219 1281 4162 
Q 984 4106 628 3988 
L 628 4550 
Q 988 4650 1302 4700 
Q 1616 4750 1894 4750 
Q 2613 4750 3031 4423 
Q 3450 4097 3450 3541 
Q 3450 3153 3228 2886 
Q 3006 2619 2597 2516 
z
" transform="scale(0.015625)"/>
       </defs>
       <use xlink:href="#DejaVuSans-33"/>
       <use xlink:href="#DejaVuSans-30" x="63.623047"/>
       <use xlink:href="#DejaVuSans-30" x="127.246094"/>
      </g>
     </g>
    </g>
    <g id="ytick_13">
     <g id="line2d_33">
      <g>
       <use xlink:href="#mc5440a184e" x="135" y="471.40414" style="stroke: #000000; stroke-width: 0.8"/>
      </g>
     </g>
     <g id="text_22">
      <!-- 400 -->
      <g transform="translate(108.9125 475.203359)scale(0.1 -0.1)">
       <use xlink:href="#DejaVuSans-34"/>
       <use xlink:href="#DejaVuSans-30" x="63.623047"/>
       <use xlink:href="#DejaVuSans-30" x="127.246094"/>
      </g>
     </g>
    </g>
    <g id="text_23">
     <!-- total rewards -->
     <g transform="translate(102.832812 583.00023)rotate(-90)scale(0.1 -0.1)">
      <defs>
       <path id="DejaVuSans-77" d="M 269 3500 
L 844 3500 
L 1563 769 
L 2278 3500 
L 2956 3500 
L 3675 769 
L 4391 3500 
L 4966 3500 
L 4050 0 
L 3372 0 
L 2619 2869 
L 1863 0 
L 1184 0 
L 269 3500 
z
" transform="scale(0.015625)"/>
      </defs>
      <use xlink:href="#DejaVuSans-74"/>
      <use xlink:href="#DejaVuSans-6f" x="39.208984"/>
      <use xlink:href="#DejaVuSans-74" x="100.390625"/>
      <use xlink:href="#DejaVuSans-61" x="139.599609"/>
      <use xlink:href="#DejaVuSans-6c" x="200.878906"/>
      <use xlink:href="#DejaVuSans-20" x="228.662109"/>
      <use xlink:href="#DejaVuSans-72" x="260.449219"/>
      <use xlink:href="#DejaVuSans-65" x="299.3125"/>
      <use xlink:href="#DejaVuSans-77" x="360.835938"/>
      <use xlink:href="#DejaVuSans-61" x="442.623047"/>
      <use xlink:href="#DejaVuSans-72" x="503.902344"/>
      <use xlink:href="#DejaVuSans-64" x="543.265625"/>
      <use xlink:href="#DejaVuSans-73" x="606.742188"/>
     </g>
    </g>
   </g>
   <g id="line2d_34">
    <path d="M 173.045455 618.517901 
L 173.81405 618.3172 
L 174.582645 620.725611 
L 175.35124 616.872154 
L 176.119835 610.208884 
L 176.88843 609.727202 
L 177.657025 601.899867 
L 178.42562 602.461829 
L 179.194215 599.812577 
L 179.96281 592.025382 
L 180.731405 595.156316 
L 181.5 595.156316 
L 182.268595 593.149307 
L 183.03719 583.876926 
L 183.805785 592.105663 
L 184.57438 573.560899 
L 185.342975 581.508655 
L 186.11157 581.468515 
L 186.880165 584.398748 
L 187.64876 589.21557 
L 188.417355 584.438888 
L 189.18595 584.117767 
L 189.954545 575.688329 
L 190.72314 582.271318 
L 191.491736 582.431879 
L 192.260331 583.997346 
L 193.028926 579.903048 
L 193.797521 563.646275 
L 194.566116 554.414033 
L 195.334711 556.983005 
L 196.103306 546.105016 
L 196.871901 532.698195 
L 197.640496 532.577775 
L 198.409091 535.788989 
L 199.177686 528.162355 
L 199.946281 536.270672 
L 200.714876 532.818616 
L 201.483471 530.289785 
L 202.252066 540.28469 
L 203.020661 528.001794 
L 203.789256 540.686091 
L 204.557851 534.504504 
L 205.326446 537.996699 
L 206.095041 535.508008 
L 206.863636 537.153755 
L 207.632231 544.218427 
L 208.400826 544.82053 
L 209.169421 562.442069 
L 209.938017 556.099921 
L 210.706612 559.511836 
L 211.475207 563.525854 
L 212.243802 575.166506 
L 213.012397 563.525854 
L 213.780992 559.632257 
L 214.549587 565.934265 
L 215.318182 568.944778 
L 216.086777 564.970901 
L 216.855372 559.592116 
L 217.623967 563.606134 
L 218.392562 562.201228 
L 219.161157 552.246463 
L 219.929752 546.9881 
L 220.698347 556.461182 
L 221.466942 564.087817 
L 222.235537 550.159174 
L 223.004132 548.754268 
L 224.541322 560.073799 
L 225.309917 542.291699 
L 226.078512 551.764781 
L 226.847107 554.454173 
L 227.615702 558.10693 
L 228.384298 561.197724 
L 229.152893 562.883611 
L 229.921488 573.480619 
L 230.690083 554.213332 
L 231.458678 542.853661 
L 232.227273 533.500999 
L 232.995868 540.766372 
L 233.764463 523.506094 
L 235.301653 501.027593 
L 236.070248 498.619182 
L 236.838843 492.277034 
L 237.607438 477.385027 
L 239.144628 503.797266 
L 239.913223 508.252826 
L 240.681818 520.575861 
L 241.450413 536.912914 
L 242.219008 546.867679 
L 242.987603 563.606134 
L 243.756198 567.218751 
L 244.524793 569.627162 
L 245.293388 582.833281 
L 246.061983 581.026973 
L 246.830579 581.388234 
L 247.599174 571.032068 
L 248.367769 570.269404 
L 249.136364 568.744078 
L 249.904959 578.498141 
L 250.673554 563.445574 
L 251.442149 565.733564 
L 252.210744 557.304126 
L 252.979339 545.462773 
L 253.747934 547.911324 
L 254.516529 530.731327 
L 255.285124 540.766372 
L 256.053719 534.062962 
L 256.822314 537.394597 
L 257.590909 524.148337 
L 258.359504 543.054362 
L 259.128099 540.686091 
L 259.896694 552.166183 
L 260.665289 551.323239 
L 261.433884 551.965482 
L 262.202479 571.313049 
L 263.739669 550.881697 
L 264.508264 550.881697 
L 265.27686 557.183706 
L 266.045455 557.143565 
L 266.81405 560.836462 
L 267.582645 547.710623 
L 268.35124 542.733241 
L 269.119835 528.322916 
L 269.88843 526.436327 
L 270.657025 538.036839 
L 271.42562 555.297117 
L 272.194215 553.77179 
L 272.96281 548.754268 
L 273.731405 542.010717 
L 274.5 538.036839 
L 275.268595 538.398101 
L 276.805785 572.477114 
L 277.57438 568.663797 
L 278.342975 571.393329 
L 279.11157 568.503236 
L 279.880165 569.868003 
L 280.64876 575.046086 
L 281.417355 565.051181 
L 282.18595 567.941274 
L 282.954545 572.758096 
L 283.72314 578.337581 
L 284.491736 575.808749 
L 285.260331 580.745992 
L 286.028926 580.30445 
L 286.797521 566.696928 
L 287.566116 547.750763 
L 288.334711 554.414033 
L 289.103306 559.993518 
L 289.871901 542.251558 
L 290.640496 551.804921 
L 291.409091 536.792494 
L 292.177686 533.460859 
L 292.946281 515.116796 
L 293.714876 517.605488 
L 295.252066 548.553567 
L 296.020661 541.529035 
L 296.789256 551.363379 
L 297.557851 554.253472 
L 298.326446 547.670483 
L 299.095041 562.56249 
L 299.863636 547.710623 
L 300.632231 563.806835 
L 301.400826 552.286604 
L 302.169421 552.848566 
L 302.938017 532.658055 
L 303.706612 535.026326 
L 304.475207 535.307307 
L 305.243802 548.433146 
L 306.012397 537.795998 
L 306.780992 537.193896 
L 307.549587 554.695014 
L 308.318182 557.304126 
L 309.086777 564.248377 
L 309.855372 552.928846 
L 310.623967 558.026649 
L 311.392562 555.256977 
L 312.161157 554.654874 
L 312.929752 553.169688 
L 313.698347 565.532863 
L 314.466942 560.956883 
L 315.235537 568.422956 
L 316.004132 570.269404 
L 316.772727 574.002441 
L 317.541322 579.702347 
L 318.309917 593.630989 
L 319.078512 591.985242 
L 319.847107 593.189447 
L 320.615702 596.199961 
L 321.384298 598.046409 
L 322.152893 598.608372 
L 322.921488 584.92057 
L 323.690083 580.42487 
L 324.458678 581.428375 
L 325.227273 585.843794 
L 325.995868 573.279918 
L 326.764463 579.100244 
L 327.533058 558.990014 
L 328.301653 554.534454 
L 329.070248 552.728146 
L 329.838843 553.530949 
L 330.607438 556.581603 
L 331.376033 560.876602 
L 332.144628 559.832957 
L 332.913223 555.497818 
L 333.681818 569.025059 
L 334.450413 554.012631 
L 335.219008 567.740573 
L 335.987603 567.860994 
L 336.756198 568.623657 
L 337.524793 551.283099 
L 338.293388 561.518845 
L 339.061983 556.501322 
L 339.830579 555.9795 
L 340.599174 559.551976 
L 341.367769 560.154079 
L 342.136364 574.564404 
L 342.904959 581.026973 
L 343.673554 574.765105 
L 344.442149 576.972815 
L 345.210744 597.885849 
L 345.979339 590.620476 
L 346.747934 577.293936 
L 347.516529 572.035572 
L 348.285124 569.065199 
L 349.053719 569.707442 
L 349.822314 553.410529 
L 350.590909 552.326744 
L 351.359504 560.194219 
L 352.128099 559.632257 
L 352.896694 547.831044 
L 353.665289 539.883288 
L 354.433884 554.414033 
L 355.202479 553.169688 
L 355.971074 538.1974 
L 356.739669 540.806512 
L 357.508264 544.981091 
L 358.27686 541.167774 
L 359.045455 539.361465 
L 359.81405 533.7017 
L 360.582645 541.207914 
L 361.35124 536.912914 
L 362.119835 540.204409 
L 362.88843 542.412119 
L 363.657025 560.555481 
L 364.42562 559.110434 
L 365.194215 573.962301 
L 365.96281 578.819263 
L 366.731405 585.683234 
L 367.5 574.965806 
L 368.268595 567.780713 
L 369.03719 569.30604 
L 369.805785 565.171601 
L 370.57438 557.143565 
L 371.342975 555.497818 
L 372.11157 557.304126 
L 372.880165 552.968987 
L 373.64876 540.083989 
L 374.417355 537.876279 
L 375.18595 553.81193 
L 375.954545 548.152165 
L 376.72314 566.656788 
L 377.491736 567.258891 
L 378.260331 571.51375 
L 379.028926 567.419452 
L 379.797521 560.997023 
L 380.566116 550.841557 
L 381.334711 556.099921 
L 382.103306 553.209828 
L 382.871901 540.043848 
L 383.640496 548.312726 
L 384.409091 544.539549 
L 385.177686 526.797589 
L 385.946281 535.628429 
L 386.714876 535.146746 
L 387.483471 540.645951 
L 388.252066 538.15726 
L 389.789256 519.692777 
L 390.557851 534.584784 
L 391.326446 539.481886 
L 392.095041 540.003708 
L 392.863636 548.633847 
L 393.632231 546.9881 
L 394.400826 530.932028 
L 395.169421 522.863851 
L 395.938017 522.58287 
L 396.706612 527.11871 
L 397.475207 541.007213 
L 398.243802 531.092588 
L 399.012397 524.83072 
L 399.780992 520.33502 
L 400.549587 514.956236 
L 401.318182 517.404787 
L 402.086777 529.888383 
L 402.855372 523.947636 
L 403.623967 535.668569 
L 404.392562 530.691186 
L 405.161157 528.242635 
L 405.929752 523.827216 
L 406.698347 526.075066 
L 407.466942 532.296794 
L 408.235537 548.995109 
L 409.004132 545.342352 
L 409.772727 556.421042 
L 410.541322 551.56408 
L 411.309917 551.60422 
L 412.078512 563.285013 
L 412.847107 566.335667 
L 413.615702 581.789636 
L 414.384298 589.897953 
L 415.921488 592.547205 
L 416.690083 596.280241 
L 417.458678 595.397157 
L 418.227273 610.008183 
L 419.764463 622.491779 
L 420.533058 622.73262 
L 421.301653 608.121595 
L 422.070248 607.720193 
L 422.838843 592.547205 
L 423.607438 593.390148 
L 424.376033 586.686738 
L 425.144628 585.964215 
L 425.913223 591.021878 
L 426.681818 589.135289 
L 427.450413 584.398748 
L 428.219008 564.127957 
L 428.987603 577.494637 
L 429.756198 569.667302 
L 430.524793 584.80015 
L 431.293388 568.302536 
L 432.061983 574.082722 
L 432.830579 560.836462 
L 433.599174 561.037163 
L 435.136364 549.757772 
L 435.904959 569.587021 
L 436.673554 570.831367 
L 437.442149 572.557395 
L 438.210744 566.857489 
L 438.979339 579.381225 
L 439.747934 577.695338 
L 440.516529 592.025382 
L 441.285124 575.166506 
L 442.053719 580.826272 
L 442.822314 588.814168 
L 443.590909 567.05819 
L 444.359504 567.09833 
L 445.128099 566.255386 
L 445.896694 570.148984 
L 446.665289 572.878516 
L 447.433884 572.436974 
L 448.202479 573.882021 
L 448.971074 590.821177 
L 449.739669 585.643094 
L 450.508264 583.836785 
L 451.27686 602.381549 
L 452.045455 601.699166 
L 452.81405 603.906876 
L 453.582645 592.507064 
L 454.35124 592.507064 
L 455.119835 590.941597 
L 455.88843 588.934588 
L 456.657025 583.274823 
L 457.42562 590.740896 
L 458.194215 587.890944 
L 458.96281 589.29585 
L 460.5 570.991928 
L 461.268595 584.278327 
L 462.03719 584.96071 
L 462.805785 577.936179 
L 463.57438 579.983328 
L 464.342975 584.76001 
L 465.11157 581.869917 
L 465.880165 586.847299 
L 466.64876 577.574917 
L 467.417355 584.398748 
L 468.18595 577.896039 
L 469.72314 569.466601 
L 470.491736 579.180524 
L 471.260331 573.079217 
L 472.797521 574.403843 
L 473.566116 561.398425 
L 474.334711 570.229264 
L 475.103306 568.824358 
L 475.871901 581.548795 
L 476.640496 584.157907 
L 477.409091 577.133375 
L 478.177686 574.965806 
L 478.946281 581.067113 
L 479.714876 580.264309 
L 480.483471 582.472019 
L 481.252066 594.754915 
L 482.020661 593.75141 
L 482.789256 593.75141 
L 483.557851 599.732297 
L 484.326446 601.538605 
L 485.095041 611.814491 
L 485.863636 604.629399 
L 486.632231 601.538605 
L 487.400826 602.381549 
L 488.169421 597.845708 
L 488.938017 599.451316 
L 489.706612 599.491456 
L 490.475207 600.3344 
L 491.243802 588.412766 
L 492.012397 585.081131 
L 492.780992 583.917066 
L 493.549587 594.674634 
L 494.318182 594.473933 
L 495.086777 593.028887 
L 495.855372 596.199961 
L 496.623967 596.962624 
L 497.392562 596.922484 
L 498.161157 587.248701 
L 498.929752 599.932998 
L 499.698347 602.421689 
L 500.466942 582.311459 
L 501.235537 568.663797 
L 502.004132 548.272585 
L 504.309917 528.644037 
L 505.078512 528.443336 
L 505.847107 518.809693 
L 506.615702 515.397778 
L 507.384298 496.210771 
L 508.921488 519.331515 
L 509.690083 541.368474 
L 510.458678 534.263663 
L 511.227273 535.82913 
L 511.995868 535.628429 
L 512.764463 526.396187 
L 513.533058 533.420719 
L 514.301653 534.624924 
L 515.070248 533.581279 
L 515.838843 531.37357 
L 516.607438 527.479972 
L 517.376033 525.834225 
L 518.144628 520.4153 
L 519.681818 492.838996 
L 521.219008 517.645628 
L 521.987603 506.526798 
L 522.756198 520.736422 
L 523.524793 511.263339 
L 524.293388 507.570442 
L 525.061983 509.898573 
L 525.830579 529.28628 
L 526.599174 537.113615 
L 527.367769 536.310812 
L 528.136364 527.841234 
L 528.904959 527.158851 
L 529.673554 537.354456 
L 530.442149 539.000204 
L 531.210744 558.949874 
L 531.979339 569.667302 
L 532.747934 565.332162 
L 533.516529 546.586698 
L 534.285124 556.501322 
L 535.053719 575.848889 
L 536.590909 564.408938 
L 537.359504 552.647865 
L 538.128099 554.775295 
L 538.896694 556.140061 
L 539.665289 549.35637 
L 540.433884 550.761277 
L 541.202479 562.843471 
L 541.971074 565.492723 
L 542.739669 566.616648 
L 544.27686 583.154402 
L 545.045455 598.809073 
L 545.81405 594.233092 
L 546.582645 595.076036 
L 547.35124 589.897953 
L 548.119835 586.285336 
L 549.657025 560.154079 
L 550.42562 553.69151 
L 551.194215 559.230855 
L 551.96281 560.796322 
L 552.731405 552.928846 
L 553.5 551.724641 
L 554.268595 546.024735 
L 555.03719 547.951464 
L 555.805785 550.600716 
L 556.57438 553.77179 
L 557.342975 567.13847 
L 558.11157 563.405434 
L 558.880165 545.904315 
L 559.64876 543.576184 
L 560.417355 550.801417 
L 561.18595 550.239454 
L 561.954545 555.93936 
L 562.72314 554.775295 
L 563.491736 555.417538 
L 564.260331 562.72305 
L 565.028926 562.64277 
L 565.797521 565.292022 
L 566.566116 574.122862 
L 567.334711 576.330572 
L 568.103306 576.531273 
L 569.640496 564.489218 
L 570.409091 573.922161 
L 571.177686 578.09674 
L 571.946281 573.440479 
L 572.714876 561.639266 
L 573.483471 559.752677 
L 574.252066 569.025059 
L 575.020661 565.653284 
L 575.789256 566.456087 
L 576.557851 576.00945 
L 577.326446 582.351599 
L 578.095041 578.09674 
L 578.863636 568.182115 
L 579.632231 579.983328 
L 580.400826 580.745992 
L 581.169421 589.014869 
L 581.938017 573.7616 
L 582.706612 569.667302 
L 583.475207 570.510245 
L 584.243802 558.990014 
L 585.012397 552.968987 
L 585.780992 554.454173 
L 586.549587 561.318144 
L 587.318182 555.016136 
L 588.086777 566.094826 
L 588.855372 564.248377 
L 589.623967 577.896039 
L 590.392562 576.892534 
L 591.161157 570.630666 
L 591.929752 587.850803 
L 592.698347 590.580336 
L 593.466942 591.021878 
L 594.235537 573.039077 
L 595.772727 552.487304 
L 596.541322 532.858756 
L 597.309917 530.089084 
L 598.078512 538.317821 
L 598.847107 536.069971 
L 599.615702 532.176373 
L 600.384298 535.146746 
L 601.152893 534.263663 
L 602.690083 566.937769 
L 604.227273 589.777532 
L 604.995868 594.112672 
L 605.764463 594.393653 
L 606.533058 596.721783 
L 607.301653 585.482533 
L 608.070248 581.468515 
L 608.838843 579.180524 
L 609.607438 565.452583 
L 610.376033 566.175106 
L 611.144628 565.653284 
L 611.913223 564.449078 
L 612.681818 554.654874 
L 613.450413 551.965482 
L 614.219008 558.18721 
L 614.987603 572.035572 
L 615.756198 571.51375 
L 616.524793 562.201228 
L 617.293388 577.775618 
L 618.061983 573.239778 
L 618.830579 562.201228 
L 619.599174 558.990014 
L 620.367769 558.588612 
L 621.136364 556.782304 
L 621.904959 556.742164 
L 623.442149 547.790903 
L 624.210744 556.581603 
L 624.979339 558.990014 
L 625.747934 562.401929 
L 627.285124 584.117767 
L 628.053719 594.393653 
L 628.822314 589.576831 
L 629.590909 565.653284 
L 630.359504 564.208237 
L 631.128099 572.196133 
L 631.896694 576.00945 
L 632.665289 574.644684 
L 633.433884 578.297441 
L 634.202479 571.272909 
L 634.971074 573.119357 
L 636.508264 549.797912 
L 637.27686 569.30604 
L 638.045455 553.450669 
L 638.81405 549.27609 
L 639.582645 534.223522 
L 640.35124 531.172869 
L 641.119835 530.329925 
L 641.88843 532.256653 
L 642.657025 520.29488 
L 643.42562 528.684177 
L 644.194215 547.509922 
L 644.96281 546.867679 
L 645.731405 568.382816 
L 646.5 566.054685 
L 647.268595 574.524264 
L 648.03719 557.946369 
L 648.805785 545.583193 
L 649.57438 550.560576 
L 650.342975 566.456087 
L 651.11157 554.815435 
L 651.880165 537.996699 
L 652.64876 542.6931 
L 653.417355 540.244549 
L 654.18595 538.23754 
L 654.954545 540.565671 
L 655.72314 541.810016 
L 656.491736 553.209828 
L 657.260331 552.045762 
L 658.028926 549.958473 
L 658.797521 562.000527 
L 659.566116 580.38473 
L 660.334711 576.491132 
L 661.871901 585.281832 
L 662.640496 593.149307 
L 663.409091 593.911971 
L 664.177686 578.17702 
L 665.714876 576.932674 
L 666.483471 573.279918 
L 667.252066 573.84188 
L 668.020661 572.477114 
L 668.789256 569.908143 
L 669.557851 570.269404 
L 670.326446 566.134966 
L 671.095041 583.475524 
L 671.863636 597.444307 
L 673.400826 573.039077 
L 674.169421 564.89062 
L 674.938017 547.951464 
L 675.706612 541.127633 
L 676.475207 532.497495 
L 677.243802 531.53413 
L 678.012397 525.312402 
L 678.780992 520.094179 
L 679.549587 523.024412 
L 680.318182 528.644037 
L 681.086777 522.020907 
L 681.855372 528.001794 
L 682.623967 544.74025 
L 684.161157 563.606134 
L 684.929752 561.880107 
L 685.698347 557.906229 
L 686.466942 558.10693 
L 687.235537 558.749173 
L 688.004132 567.419452 
L 688.772727 585.562813 
L 689.541322 594.112672 
L 690.309917 588.894448 
L 691.078512 574.765105 
L 691.847107 556.742164 
L 692.615702 554.895715 
L 693.384298 556.581603 
L 694.152893 561.077303 
L 694.921488 561.077303 
L 695.690083 543.736745 
L 696.458678 531.293289 
L 697.227273 525.553243 
L 697.995868 531.092588 
L 699.533058 556.822444 
L 701.070248 570.871507 
L 701.838843 569.627162 
L 702.607438 548.714127 
L 703.376033 552.045762 
L 704.144628 548.914828 
L 704.913223 551.122538 
L 705.681818 544.178287 
L 706.450413 539.722727 
L 707.219008 528.884878 
L 707.987603 531.333429 
L 708.756198 526.637028 
L 709.524793 524.429318 
L 710.293388 526.797589 
L 711.061983 531.092588 
L 711.830579 545.462773 
L 712.599174 548.312726 
L 713.367769 553.089407 
L 714.136364 547.951464 
L 714.904959 566.295527 
L 715.673554 549.516931 
L 716.442149 546.747259 
L 717.210744 537.434737 
L 717.979339 552.607725 
L 718.747934 562.080808 
L 719.516529 553.892211 
L 721.053719 548.232445 
L 721.822314 542.853661 
L 722.590909 540.766372 
L 723.359504 547.831044 
L 724.128099 542.733241 
L 724.896694 549.436651 
L 725.665289 536.993195 
L 726.433884 529.486981 
L 727.202479 541.890297 
L 727.971074 545.382493 
L 728.739669 550.440155 
L 729.508264 549.677492 
L 730.27686 536.792494 
L 731.045455 546.064876 
L 731.81405 549.115529 
L 732.582645 554.614734 
L 733.35124 568.422956 
L 734.119835 576.210151 
L 734.88843 575.527768 
L 735.657025 561.639266 
L 736.42562 561.679406 
L 737.194215 559.190715 
L 737.96281 574.122862 
L 738.731405 572.958797 
L 739.5 575.005946 
L 740.268595 570.389825 
L 741.03719 558.990014 
L 741.805785 553.69151 
L 742.57438 539.562166 
L 743.342975 546.94796 
L 744.11157 526.275767 
L 744.880165 547.469782 
L 745.64876 542.853661 
L 746.417355 533.380579 
L 747.18595 526.516608 
L 747.954545 525.191982 
L 748.72314 528.844738 
L 749.491736 512.909086 
L 750.260331 517.083665 
L 751.028926 510.059134 
L 751.797521 522.422309 
L 752.566116 515.437918 
L 753.334711 502.51278 
L 754.103306 507.771143 
L 754.871901 525.272262 
L 755.640496 524.268758 
L 756.409091 533.380579 
L 757.177686 552.928846 
L 757.946281 545.101511 
L 758.714876 549.918333 
L 759.483471 552.728146 
L 760.252066 557.745668 
L 761.020661 561.157583 
L 761.789256 566.175106 
L 762.557851 563.365293 
L 763.326446 569.18562 
L 764.095041 569.627162 
L 764.863636 560.274499 
L 765.632231 575.126366 
L 766.400826 573.72146 
L 767.169421 578.939683 
L 767.938017 563.204733 
L 768.706612 576.892534 
L 769.475207 575.447488 
L 771.012397 560.39492 
L 771.780992 560.595621 
L 772.549587 569.587021 
L 773.318182 561.920247 
L 774.086777 572.115853 
L 774.855372 568.904638 
L 775.623967 585.000851 
L 776.392562 580.625571 
L 777.161157 576.892534 
L 777.929752 589.055009 
L 778.698347 587.208561 
L 779.466942 584.358608 
L 780.235537 580.946692 
L 781.004132 586.044495 
L 781.772727 584.719869 
L 782.541322 587.529682 
L 783.309917 588.452906 
L 784.078512 587.409261 
L 784.847107 573.68132 
L 786.384298 562.080808 
L 787.152893 565.011041 
L 787.921488 556.220341 
L 788.690083 560.595621 
L 789.458678 558.949874 
L 790.227273 546.546558 
L 790.995868 527.720813 
L 791.764463 527.760953 
L 792.533058 547.429642 
L 793.301653 553.290108 
L 794.070248 572.075713 
L 794.838843 559.230855 
L 795.607438 570.831367 
L 796.376033 556.742164 
L 797.144628 558.949874 
L 797.913223 551.122538 
L 798.681818 567.05819 
L 799.450413 562.000527 
L 800.219008 560.595621 
L 800.987603 558.508332 
L 801.756198 540.164269 
L 802.524793 549.878193 
L 803.293388 549.19581 
L 804.061983 564.93076 
L 804.830579 552.326744 
L 805.599174 570.108844 
L 806.367769 563.084312 
L 807.136364 558.749173 
L 807.904959 553.530949 
L 808.673554 539.883288 
L 809.442149 557.424547 
L 810.210744 544.017726 
L 810.979339 546.105016 
L 811.747934 545.864175 
L 812.516529 558.468191 
L 813.285124 560.716041 
L 814.053719 555.216837 
L 814.822314 555.377397 
L 815.590909 549.597211 
L 816.359504 558.026649 
L 817.128099 552.005622 
L 817.896694 561.398425 
L 818.665289 561.759686 
L 819.433884 555.9795 
L 820.202479 555.578098 
L 820.971074 552.607725 
L 821.739669 560.756182 
L 822.508264 555.658379 
L 823.27686 556.541463 
L 824.81405 571.51375 
L 825.582645 577.133375 
L 826.35124 574.524264 
L 827.119835 573.199638 
L 827.88843 572.236273 
L 828.657025 570.148984 
L 829.42562 578.538282 
L 830.194215 597.364026 
L 830.96281 607.680053 
L 831.731405 601.779446 
L 832.5 600.735801 
L 833.268595 583.033982 
L 834.03719 579.622066 
L 834.805785 584.358608 
L 835.57438 583.515664 
L 836.342975 586.967719 
L 837.11157 586.124776 
L 837.880165 586.927579 
L 838.64876 585.321972 
L 839.417355 571.875012 
L 840.18595 570.068704 
L 840.954545 585.161411 
L 842.491736 589.175429 
L 843.260331 575.327067 
L 844.028926 566.295527 
L 844.797521 567.419452 
L 845.566116 567.941274 
L 846.334711 565.532863 
L 847.103306 583.796645 
L 847.871901 586.606458 
L 848.640496 572.436974 
L 849.409091 554.855575 
L 850.177686 553.049267 
L 850.946281 564.087817 
L 851.714876 572.717955 
L 852.483471 562.361789 
L 853.252066 561.759686 
L 854.020661 564.7702 
L 854.789256 561.799826 
L 855.557851 557.986509 
L 857.095041 594.835195 
L 858.632231 586.445897 
L 859.400826 588.051504 
L 860.169421 584.238187 
L 860.938017 577.976319 
L 861.706612 574.163002 
L 863.243802 580.38473 
L 864.012397 562.883611 
L 864.780992 566.536368 
L 865.549587 567.740573 
L 866.318182 576.370712 
L 867.086777 576.772114 
L 867.855372 588.854308 
L 868.623967 585.843794 
L 869.392562 591.904962 
L 870.161157 589.095149 
L 870.929752 580.264309 
L 871.698347 597.685148 
L 872.466942 590.821177 
L 873.235537 592.426784 
L 874.004132 588.252205 
L 874.772727 580.50515 
L 875.541322 576.491132 
L 876.309917 565.853985 
L 877.847107 535.186887 
L 878.615702 541.970577 
L 879.384298 532.898896 
L 880.152893 538.960064 
L 880.921488 527.279271 
L 881.690083 522.66315 
L 882.458678 510.982358 
L 883.227273 516.361142 
L 883.995868 524.228617 
L 884.764463 520.29488 
L 885.533058 534.183382 
L 887.070248 539.200905 
L 887.838843 519.050534 
L 888.607438 528.884878 
L 889.376033 516.441422 
L 890.144628 531.41371 
L 890.913223 532.136233 
L 891.681818 523.064552 
L 892.450413 539.883288 
L 893.219008 545.783894 
L 893.987603 543.817025 
L 894.756198 548.031744 
L 895.524793 560.35478 
L 896.293388 556.140061 
L 897.061983 570.751087 
L 897.830579 574.845385 
L 898.599174 574.765105 
L 899.367769 593.83169 
L 900.136364 587.409261 
L 900.904959 572.637675 
L 901.673554 573.199638 
L 902.442149 563.726555 
L 903.210744 558.06679 
L 903.979339 547.790903 
L 904.747934 534.785485 
L 905.516529 535.94955 
L 906.285124 533.862261 
L 907.053719 535.467868 
L 907.822314 528.242635 
L 908.590909 541.167774 
L 909.359504 532.136233 
L 910.896694 540.003708 
L 911.665289 553.209828 
L 912.433884 573.84188 
L 913.202479 573.84188 
L 913.971074 573.520759 
L 914.739669 558.668892 
L 915.508264 572.316554 
L 916.27686 568.463096 
L 917.045455 576.491132 
L 917.81405 566.536368 
L 918.582645 566.335667 
L 919.35124 565.372302 
L 920.119835 543.776885 
L 920.88843 534.986186 
L 921.657025 529.32642 
L 922.42562 535.548148 
L 923.194215 536.752354 
L 923.96281 542.412119 
L 924.731405 534.424223 
L 925.5 551.925342 
L 926.268595 562.161088 
L 927.03719 565.452583 
L 927.805785 584.76001 
L 928.57438 585.602953 
L 929.342975 582.71286 
L 930.11157 583.957206 
L 930.880165 572.115853 
L 931.64876 565.733564 
L 932.417355 554.815435 
L 933.18595 541.890297 
L 933.954545 541.488895 
L 933.954545 541.488895 
" clip-path="url(#p314e405d38)" style="fill: none; stroke: #1f77b4; stroke-width: 1.5; stroke-linecap: square"/>
   </g>
   <g id="patch_13">
    <path d="M 135 630 
L 135 470.117647 
" style="fill: none; stroke: #000000; stroke-width: 0.8; stroke-linejoin: miter; stroke-linecap: square"/>
   </g>
   <g id="patch_14">
    <path d="M 972 630 
L 972 470.117647 
" style="fill: none; stroke: #000000; stroke-width: 0.8; stroke-linejoin: miter; stroke-linecap: square"/>
   </g>
   <g id="patch_15">
    <path d="M 135 630 
L 972 630 
" style="fill: none; stroke: #000000; stroke-width: 0.8; stroke-linejoin: miter; stroke-linecap: square"/>
   </g>
   <g id="patch_16">
    <path d="M 135 470.117647 
L 972 470.117647 
" style="fill: none; stroke: #000000; stroke-width: 0.8; stroke-linejoin: miter; stroke-linecap: square"/>
   </g>
  </g>
 </g>
 <defs>
  <clipPath id="pfdea148075">
   <rect x="135" y="86.4" width="837" height="159.882353"/>
  </clipPath>
  <clipPath id="p84e55274b0">
   <rect x="135" y="278.258824" width="837" height="159.882353"/>
  </clipPath>
  <clipPath id="p314e405d38">
   <rect x="135" y="470.117647" width="837" height="159.882353"/>
  </clipPath>
 </defs>
</svg>
